<svg xmlns="http://www.w3.org/2000/svg" xmlns:xlink="http://www.w3.org/1999/xlink" id="Layer_1" x="0px" y="0px" viewBox="0 0 300 300" style="enable-background:new 0 0 300 300;" xml:space="preserve"> <style type="text/css"> .st0{fill:#FFFFFF;} .st1{fill:#78993D;} .st2{fill:#246923;} .st3{fill:#FFC901;} .st4{fill:#66CC00;} .st5{fill:url(#SVGID_1_);} .st6{fill:url(#SVGID_00000054963294388584716410000011445264648242330511_);} .st7{fill:url(#SVGID_00000118396364166221331730000006269433379635647918_);} .st8{fill:url(#SVGID_00000071562027380783026840000000945114566665966208_);} .st9{fill:url(#SVGID_00000013154742617892001370000008175583716400447149_);} .st10{fill:none;} .st11{fill:url(#SVGID_00000165224831688079972050000006149321164955698055_);} .st12{fill:url(#SVGID_00000030446219627108223340000018262454450941064856_);} .st13{fill:url(#SVGID_00000049940905423627355880000006843319451292855176_);} .st14{fill:url(#SVGID_00000048502763687528870330000005939424483533166474_);} .st15{fill:url(#SVGID_00000040553075530097419730000003638149891704255131_);} .st16{fill:url(#SVGID_00000092437065230286724310000008568148113778402494_);} .st17{fill:url(#SVGID_00000124853819283011630680000017805367932572616350_);} .st18{fill:url(#SVGID_00000142148449983244262880000017194451033873741445_);} .st19{fill:url(#SVGID_00000079485755606548513610000003778013382870749314_);} .st20{fill:url(#SVGID_00000116194841325969249730000015876679969322573442_);} .st21{fill:url(#SVGID_00000046326998299129609000000017198875086078366092_);} .st22{fill:url(#SVGID_00000026136949371416561810000010249075617849508789_);} .st23{fill:url(#SVGID_00000136414011407727330330000014073597604485402289_);} .st24{fill:url(#SVGID_00000098901379656124177080000016413316910760947350_);} .st25{fill:url(#SVGID_00000098915993361847827570000004237668216132049342_);} .st26{fill:url(#SVGID_00000100353105901194777040000007365778641868167583_);} .st27{fill:url(#SVGID_00000172402678754765828810000003698785263503330484_);} .st28{fill:url(#SVGID_00000136377264132650807810000003381694462930265785_);} .st29{fill:url(#SVGID_00000167384334774460504410000013362982372096752570_);} .st30{fill:url(#SVGID_00000180363867017235956600000001775420539176067257_);} .st31{fill:url(#SVGID_00000044896566525828810180000004336038970883286666_);} .st32{fill:url(#SVGID_00000152978523053090541430000018261950812963742097_);} .st33{fill:url(#SVGID_00000076573432810575642770000001874803222161570721_);} .st34{fill:url(#SVGID_00000151544998410498204190000002434144623224627127_);} .st35{fill:url(#SVGID_00000074437405988759327630000006953321380594253189_);} .st36{fill:none;stroke:#000000;stroke-width:2;stroke-miterlimit:10;} .st37{fill:#FFFFFF;stroke:#231F20;stroke-width:2;stroke-miterlimit:10;} .st38{fill:#336633;} .st39{fill:url(#SVGID_00000101796950928492231470000010231621098167754930_);} .st40{fill:url(#SVGID_00000181793355492206269620000008657258886811461798_);} .st41{fill:url(#SVGID_00000004520685182352079970000004657354253736408982_);} .st42{fill:url(#SVGID_00000138552607581435790170000008984549308873519280_);} .st43{fill:url(#SVGID_00000132775258402679937160000012175307266187960230_);} .st44{fill:url(#SVGID_00000033336658055052995280000015964774672823520913_);} .st45{fill:url(#SVGID_00000037662220922375861050000010264372693189542322_);} .st46{fill:url(#SVGID_00000147926570114393298820000016962378194463494067_);} .st47{fill:url(#SVGID_00000034797835291895378840000007234326316831549583_);} .st48{fill:url(#SVGID_00000044890634594175736890000013287199288211648144_);} .st49{fill:url(#SVGID_00000145770212937958129970000003021091958408356741_);} .st50{fill:url(#SVGID_00000006681182278123406760000016784759792697509821_);} .st51{fill:url(#SVGID_00000078033515764043930180000009186271859836942752_);} .st52{fill:url(#SVGID_00000158014836290914566780000013663786100556470671_);} .st53{fill:url(#SVGID_00000061455806278718215310000013111182918538333069_);} .st54{fill:url(#SVGID_00000046310346918077575400000009864610650883311020_);} .st55{fill:#231F20;} .st56{fill:url(#SVGID_00000139980649060082140540000010190786400751235492_);} .st57{fill:url(#SVGID_00000053541751653972268190000007254020639558771603_);} .st58{fill:url(#SVGID_00000085966278803190408160000006447060611370038457_);} .st59{fill:url(#SVGID_00000103950315938549414520000004770614101487210408_);} .st60{fill:url(#SVGID_00000177482408379936652630000017997596863186356632_);} .st61{fill:url(#SVGID_00000112634987296480822210000017550182198900757927_);} .st62{fill:url(#SVGID_00000135678693423048227760000009862116460708256916_);} .st63{fill:url(#SVGID_00000150063415317410736400000017052296409482594227_);} .st64{fill:url(#SVGID_00000106830158249998754610000004867822797484114325_);} .st65{fill:url(#SVGID_00000183240014598069426660000017846280987407039407_);} .st66{fill:url(#SVGID_00000162343105312794543530000018369047009384830883_);} .st67{fill:#007537;} .st68{fill:#8CC63F;} </style> <rect class="st0" width="300" height="300"></rect> <g> <g> <path class="st67" d="M88.04,265.97c3.88-12.56,6.68-15.69,8.59-16.02c0.41-0.07,2.05-0.25,3.23-1.5 c0.69-0.73,0.94-1.76,1.16-2.74c0.88-3.96,1.68-8.04,3.77-11.51c2.09-3.47,5.81-6.26,9.82-5.95c0.91-3.85,1.87-7.82,4.27-10.95 c2.39-3.13,6.64-5.18,10.3-3.78c1.01,0.38,2.11,1.01,3.08,0.54c0.57-0.28,0.91-0.86,1.21-1.43c2.96-5.61,5.64-12.84,11.86-13.85 c1.26-0.2,2.55-0.11,3.82-0.29c1.87-0.26,3.6-1.12,5.43-1.59c4.16-1.06,8.53-0.06,12.7,0.94c1.84,0.44,3.69,0.88,5.53,1.33 c2.57,0.62,5.35,1.37,6.92,3.51c0.71,0.96,1.1,2.12,1.7,3.14c1.82,3.11,5.35,4.73,8.75,5.83c3.4,1.11,7.02,1.95,9.83,4.17 c2.82,2.23,4.55,6.4,2.77,9.53c3.95-0.89,8.32,0.42,11.15,3.34c2.83,2.93,4.02,7.37,3.05,11.34c4.58-0.4,9.17,3.11,10.02,7.67 c0.25,1.35,0.29,2.91,1.31,3.81c0.76,0.67,1.85,0.76,2.81,1.06c5.01,1.54,6.17,8.06,6.44,13.34c-1.67-0.13-3.34-0.38-5.01-0.38 C184.38,265.69,136.21,265.83,88.04,265.97z"></path> </g> <path class="st68" d="M263.29,34.03c0,0-109.94,3.4-96.82,107.08c-3.23,10.6-5,20.54-5.96,28.75c0,0,0,0,0,0 c-2.28-9.61-4.92-17.41-7.19-23.19c-2.17-30.43-17.47-105.76-116.6-95.88c0,0,24.43,14.86,26.93,43.47 c2.36,27.06,15.66,62.16,78.67,64.68c-15.44-45-51.75-71.69-51.75-71.69s33,10.7,52.83,50.16l-0.34,0.19 c0.13,0.24,12.92,23.14,16.47,60.76c0.19,3.44,0.43,5.45,0.46,5.67l5.55-0.53c-0.12-1.82-0.27-3.61-0.43-5.36 c-0.31-5.68-0.46-15.59,0.94-27.62c2.04-17.5,7.9-43.11,24.21-65.73l-0.48-0.35c19.71-24.74,41.83-33.82,42.14-33.94 c-0.42,0.33-45.38,36.23-52.65,82.53c20.36-0.18,62.74-4.91,69.86-40.47C258.57,65.44,232.75,67.96,263.29,34.03z"></path> </g> </svg>