<svg xmlns="http://www.w3.org/2000/svg" xmlns:xlink="http://www.w3.org/1999/xlink" id="Layer_1" x="0px" y="0px" viewBox="0 0 300 300" style="enable-background:new 0 0 300 300;" xml:space="preserve"> <style type="text/css"> .st0{fill:#FFFFFF;} .st1{fill:#78993D;} .st2{fill:#246923;} .st3{fill:#FFC901;} .st4{fill:#66CC00;} .st5{fill:url(#SVGID_1_);} .st6{fill:url(#SVGID_00000166635740239401720410000015608104520277727104_);} .st7{fill:url(#SVGID_00000126313140593657750800000009913556572555833000_);} .st8{fill:url(#SVGID_00000009554027464791627030000001252942297639965332_);} .st9{fill:url(#SVGID_00000151504257793861342400000009174940301276773504_);} .st10{fill:none;} .st11{fill:url(#SVGID_00000029041726495829014120000011350531791844889533_);} .st12{fill:url(#SVGID_00000076597833022346123970000000838339734139842703_);} .st13{fill:url(#SVGID_00000127754310981482724380000006545855783001139110_);} .st14{fill:url(#SVGID_00000127022745855410888290000017741114154416099462_);} .st15{fill:url(#SVGID_00000064320850115520761440000014412731110629435562_);} .st16{fill:url(#SVGID_00000020394646531545722550000003453171233430635696_);} .st17{fill:url(#SVGID_00000005236055249078663960000007453472794092968123_);} .st18{fill:url(#SVGID_00000102544766126548478700000000654849109079358135_);} .st19{fill:url(#SVGID_00000158728067038872430090000002466687395557345153_);} .st20{fill:url(#SVGID_00000163068198822242181830000018353861872121900708_);} .st21{fill:url(#SVGID_00000142167332142079106790000004922512123103797142_);} .st22{fill:url(#SVGID_00000171721709323076902850000004788714138618647214_);} .st23{fill:url(#SVGID_00000085928724551011240380000017692373079499863431_);} .st24{fill:url(#SVGID_00000062159989855686445350000007120756919842338984_);} .st25{fill:url(#SVGID_00000149377641028355349070000008255350532359387543_);} .st26{fill:url(#SVGID_00000005982859013587479370000009603381545616049325_);} .st27{fill:url(#SVGID_00000096758026762234611310000013703051978826055303_);} .st28{fill:url(#SVGID_00000168114521835857050110000004053173424005666196_);} .st29{fill:url(#SVGID_00000084503123964193273850000014759460185602237087_);} .st30{fill:url(#SVGID_00000035510151043790385900000001573302286917567664_);} .st31{fill:url(#SVGID_00000036939295728740544960000002969634195871373470_);} .st32{fill:url(#SVGID_00000099651349422793698210000014083097197543565481_);} .st33{fill:url(#SVGID_00000004534642308965398820000007761413604899864469_);} .st34{fill:url(#SVGID_00000076566388078934243210000012322904814409810350_);} .st35{fill:url(#SVGID_00000023980199590506963330000010147870090347045765_);} .st36{fill:none;stroke:#000000;stroke-width:2;stroke-miterlimit:10;} .st37{fill:#FFFFFF;stroke:#231F20;stroke-width:2;stroke-miterlimit:10;} .st38{fill:#336633;} .st39{fill:url(#SVGID_00000135658963265280783250000008983995886594570388_);} .st40{fill:url(#SVGID_00000022552436453699715610000012223442816502161308_);} .st41{fill:url(#SVGID_00000106848252251922603850000002908859352713887140_);} .st42{fill:url(#SVGID_00000090997398369631026940000010972840776745354172_);} .st43{fill:url(#SVGID_00000111870968662435498150000010148409747185535422_);} .st44{fill:url(#SVGID_00000157277579678760704290000008715366685684645817_);} .st45{fill:url(#SVGID_00000128446674952148210350000002039096719826550150_);} .st46{fill:url(#SVGID_00000016071885740348725820000009117316484470459576_);} .st47{fill:url(#SVGID_00000158019957047081389520000011375554213348411526_);} .st48{fill:url(#SVGID_00000160880685593358635940000000259507329537202602_);} .st49{fill:url(#SVGID_00000119081641704670257400000008184870541605913515_);} .st50{fill:url(#SVGID_00000039109839735718790970000010022724177847744653_);} .st51{fill:url(#SVGID_00000118367302103101134720000008613691707675205807_);} .st52{fill:url(#SVGID_00000020359281162901006210000008312926955930643620_);} .st53{fill:url(#SVGID_00000153686724785037406640000013803679424050362542_);} .st54{fill:url(#SVGID_00000080916726930097989250000017168263175806288800_);} .st55{fill:#231F20;} .st56{fill:url(#SVGID_00000072264388353706606320000017129062197708454797_);} .st57{fill:url(#SVGID_00000029035095159008469480000009436368892839995289_);} .st58{fill:url(#SVGID_00000047021681809773356980000017707280491651450034_);} .st59{fill:url(#SVGID_00000072963003615561670050000001690811057561265599_);} .st60{fill:url(#SVGID_00000002375044781670664270000014192788117276284811_);} .st61{fill:url(#SVGID_00000147901225681411199840000011772332303926083468_);} .st62{fill:url(#SVGID_00000105428129320690100100000009015869063085264318_);} .st63{fill:url(#SVGID_00000094587035443426316160000011697581386898068117_);} .st64{fill:url(#SVGID_00000010313230310136937670000003569224461375590799_);} .st65{fill:url(#SVGID_00000031923906041196762730000004235378406039190448_);} .st66{fill:url(#SVGID_00000170255997575797728630000012308622569469242540_);} .st67{fill:#007537;} .st68{fill:#8CC63F;} </style> <rect class="st0" width="300" height="300"></rect> <g> <g> <path class="st67" d="M112.58,249.57c4.39,2.55,5.89,9.35,6.97,15.11c35.71,0.43,71.42,0.86,107.14,1.29 c-1.29-16.75-2.58-33.5-3.87-50.26c0.97-3.48,1.95-6.96,2.92-10.44c9.92-13.05,17.97-27.3,23.93-42.38l0.23-0.58 c1.36-3.45,2.89-7.32,4.29-11.55c1.39-4.23,2.65-8.83,3.45-13.75c3.68-22.37-2.33-48.6-15.31-66.81 c-13.67-19.17-36.55-31.67-64.43-35.2c-12.14-1.53-24.54-1.25-36.46,0.71c-13.67,2.24-26.73,6.69-38.12,13.15 c-14.9,8.45-27.45,20.55-37.3,35.98l-0.21,0.34l-0.13,0.38c-1.77,5.43-2.74,10.93-2.88,16.37c-0.05,1.96-0.12,3.68-0.2,5.35 c-0.31,7.13-0.53,12.28,1.95,22.81c0.11,0.45,0.38,1.69,0.28,3.32c0,0-0.08,1.28-0.46,2.56c-0.59,2.02-9.74,24.34-22.7,55.51 c-1.37,3.29,1.12,6.89,4.68,6.77l14.77-0.5c1.51,8.28,1.41,13.11,0.96,16.07c-0.33,2.13-1.03,4.58,0.19,7.08 c0.61,1.26,1.6,2.3,1.53,4.02c-0.05,1.23-0.61,1.97-0.96,2.68c-1.32,2.7-0.01,5.72,0.77,8.42c2.33,8.08-1.02,10.09,1.34,13.01 c2.34,2.9,8.97,2.56,22.12,1.76c3.28-0.2,5.98-0.43,7.79-0.61l0.85-0.07C103.63,249.38,111.11,248.72,112.58,249.57z"></path> </g> <g> <g> <path class="st68" d="M124.36,102.81c5.95,4.34,10.12,8.44,12.59,11.06c15.42,16.34,25.71,39.59,27.46,62.6 c-59.48-6.87-63.75-44.73-68.02-70.29c-4.37-26.14-8.73-26.61-8.89-26.62c92.21,3.54,91.08,63.51,86.85,87.65 c-2.18-10.68-7.35-26.7-20.2-41.65C143.57,113.24,131.89,106.41,124.36,102.81z"></path> </g> <g> <path class="st68" d="M231.57,126.03c-0.53,24.11-27.48,41.16-29.04,42.12c-4.75,2.92-13.81,7.6-26.73,9.01 c3.45-5.18,4.34-14.2,4.09-23.5c11.75-28.79,26.31-38.26,31.31-40.78c-19.11,8.66-28.12,20.51-32.21,28.3 c-1.21-10.93-3.19-19.8-3.19-19.8c2.56-5.36,6.83-12.34,13.94-18.59c20.06-17.61,46-14.64,51.13-13.94 c-3.23,3.93-7.45,10.18-9.3,18.59C229.76,115.7,231.72,119.35,231.57,126.03z"></path> </g> <g> <path class="st68" d="M212.98,112.08c-0.6,0.26-1.2,0.52-1.78,0.79C212.34,112.29,212.98,112.08,212.98,112.08z"></path> </g> </g> </g> </svg>