<svg xmlns="http://www.w3.org/2000/svg" xmlns:xlink="http://www.w3.org/1999/xlink" id="Layer_1" x="0px" y="0px" viewBox="0 0 300 300" style="enable-background:new 0 0 300 300;" xml:space="preserve"> <style type="text/css"> .st0{fill:#FFFFFF;} .st1{fill:#78993D;} .st2{fill:#246923;} .st3{fill:#FFC901;} .st4{fill:#66CC00;} .st5{fill:url(#SVGID_1_);} .st6{fill:url(#SVGID_00000130642074449390852830000003425583302012840336_);} .st7{fill:url(#SVGID_00000003102202242087323090000012303134870915241614_);} .st8{fill:url(#SVGID_00000037691820816799307710000015588729787014501788_);} .st9{fill:url(#SVGID_00000160896458331723171020000015320903412162556351_);} .st10{fill:none;} .st11{fill:url(#SVGID_00000016040044592489488430000016408309071960033188_);} .st12{fill:url(#SVGID_00000154406181752606117960000010550622608697689250_);} .st13{fill:url(#SVGID_00000173860614257320934120000009882070801616737194_);} .st14{fill:url(#SVGID_00000050632787851945508020000001359374479007941521_);} .st15{fill:url(#SVGID_00000114788222004381478890000008493686376947629442_);} .st16{fill:url(#SVGID_00000046298211093830363930000015125707665330493624_);} .st17{fill:url(#SVGID_00000116929768161957723030000002974118254431389093_);} .st18{fill:url(#SVGID_00000111188548564295884060000003136098157470188693_);} .st19{fill:url(#SVGID_00000109005882669556211720000007988667072655802794_);} .st20{fill:url(#SVGID_00000147195197814491356470000001512946359703334784_);} .st21{fill:url(#SVGID_00000040558898286134058840000013518393343702063753_);} .st22{fill:url(#SVGID_00000155112679163346318030000004137331722731054486_);} .st23{fill:url(#SVGID_00000046321087068192966160000000092910347521505153_);} .st24{fill:url(#SVGID_00000173155174925012702700000016597369418980991111_);} .st25{fill:url(#SVGID_00000067932708417966482040000009304114683276223915_);} .st26{fill:url(#SVGID_00000060736435276647822970000009357835604348666815_);} .st27{fill:url(#SVGID_00000121995479380231008110000001263722569071960465_);} .st28{fill:url(#SVGID_00000018959891432914849780000003892268999183604366_);} .st29{fill:url(#SVGID_00000044140797016107818600000006857553494949804207_);} .st30{fill:url(#SVGID_00000178901781102911927160000004048027196058115002_);} .st31{fill:url(#SVGID_00000088820469765141745800000000908644162234725763_);} .st32{fill:url(#SVGID_00000111153768194360856070000004774833387011920047_);} .st33{fill:url(#SVGID_00000137823174080904002140000013367292257767537796_);} .st34{fill:url(#SVGID_00000173158745356955889540000002986248744388921772_);} .st35{fill:url(#SVGID_00000173843841514976531800000006612324192140211331_);} .st36{fill:none;stroke:#000000;stroke-width:2;stroke-miterlimit:10;} .st37{fill:#FFFFFF;stroke:#231F20;stroke-width:2;stroke-miterlimit:10;} .st38{fill:#336633;} .st39{fill:url(#SVGID_00000060718513975471885980000000035015065114090891_);} .st40{fill:url(#SVGID_00000034780332235128055540000013421903779009031090_);} .st41{fill:url(#SVGID_00000023989428763959425040000004603436367202989472_);} .st42{fill:url(#SVGID_00000170982892617843084240000012602345163714401203_);} .st43{fill:url(#SVGID_00000044867497173570711430000008329910101391326854_);} .st44{fill:url(#SVGID_00000000941949040559347040000013315137767051467956_);} .st45{fill:url(#SVGID_00000052814668523959612210000006311671876163938178_);} .st46{fill:url(#SVGID_00000164497693016234946580000003290605141221519276_);} .st47{fill:url(#SVGID_00000101075601411400421780000012057402127312374680_);} .st48{fill:url(#SVGID_00000006686370050853372670000014563154671559019443_);} .st49{fill:url(#SVGID_00000131363811724759321850000003964789731711575944_);} .st50{fill:url(#SVGID_00000161609137673544061620000011497456648876168069_);} .st51{fill:url(#SVGID_00000026143223094316992130000004897853716438870917_);} .st52{fill:url(#SVGID_00000060745491005350698410000004613917759763493267_);} .st53{fill:url(#SVGID_00000072247597658914006720000013811744405286502063_);} .st54{fill:url(#SVGID_00000124156551294631407390000000860282193632651664_);} .st55{fill:#231F20;} .st56{fill:url(#SVGID_00000176724639581205303560000006105229191263145860_);} .st57{fill:url(#SVGID_00000001638213238078767780000016624786313510076562_);} .st58{fill:url(#SVGID_00000049215765268251518100000003872455262987180451_);} .st59{fill:url(#SVGID_00000070837832570458675710000011354542649310543505_);} .st60{fill:url(#SVGID_00000101085314365570056310000010188999265439896718_);} .st61{fill:url(#SVGID_00000135685912344911166930000010042192062089241729_);} .st62{fill:url(#SVGID_00000037650121051703265440000008837935935311152549_);} .st63{fill:url(#SVGID_00000049189712534451959260000001078421264854573463_);} .st64{fill:url(#SVGID_00000061436898164254309100000015100464440141412268_);} .st65{fill:url(#SVGID_00000150803591328265912970000017966427827366530493_);} .st66{fill:url(#SVGID_00000074417485140147260950000007474208822521455029_);} .st67{fill:#007537;} .st68{fill:#8CC63F;} .st69{fill:#97CE2F;} .st70{fill:#3F3F3F;} </style> <rect class="st0" width="300" height="300"></rect> <g> <ellipse transform="matrix(0.1677 -0.9858 0.9858 0.1677 -23.0338 272.7165)" class="st67" cx="150" cy="150" rx="113.29" ry="113.29"></ellipse> <g> <g> <path class="st68" d="M150,48.42c-56.48,0-102.27,45.79-102.27,102.27S93.52,252.96,150,252.96s102.27-45.79,102.27-102.27 S206.48,48.42,150,48.42z M150,240.36c-22.63,0-43.3-8.39-59.08-22.21l33.51-33.51l-8.38-8.38l-33.51,33.51 c-13.83-15.78-22.21-36.45-22.21-59.08c0-49.53,40.15-89.67,89.67-89.67c22.63,0,43.3,8.39,59.08,22.21l-32.97,32.97l8.38,8.38 l32.97-32.97c13.83,15.78,22.21,36.45,22.21,59.08C239.67,200.21,199.53,240.36,150,240.36z"></path> </g> <path class="st0" d="M165.9,82.55h-28.92c-2.09,0-3.79,1.7-3.79,3.79c0,2.09,1.7,3.79,3.79,3.79h1.26v14.88 c-0.02,0.09-0.05,0.17-0.05,0.27c0,0.1,0.03,0.18,0.05,0.27v23.22c-0.02,0.09-0.05,0.17-0.05,0.27c0,0.1,0.03,0.18,0.05,0.27 v23.22c-0.02,0.09-0.05,0.17-0.05,0.27c0,0.1,0.03,0.18,0.05,0.27v55.8c0,7.45,6.04,13.48,13.48,13.48 c7.45,0,13.48-6.04,13.48-13.48V90.13h0.7c2.09,0,3.79-1.7,3.79-3.79C169.69,84.25,167.99,82.55,165.9,82.55z M142.37,208.86 v-32.18h6.55v33.77c0,3.04,0.91,5.78,2.35,7.72C146.33,217.92,142.37,213.86,142.37,208.86z M161.08,172.55h-18.7v-18.72h11.82 c0.57,0,1.03-0.46,1.03-1.03c0-0.57-0.46-1.03-1.03-1.03h-11.82v-21.69h11.82c0.57,0,1.03-0.46,1.03-1.03 c0-0.57-0.46-1.03-1.03-1.03h-11.82v-21.69h11.82c0.57,0,1.03-0.46,1.03-1.03c0-0.57-0.46-1.03-1.03-1.03h-11.82V90.13h18.7 V172.55z"></path> </g> </g> </svg>