<svg xmlns="http://www.w3.org/2000/svg" xmlns:xlink="http://www.w3.org/1999/xlink" id="Layer_1" x="0px" y="0px" viewBox="0 0 300 300" style="enable-background:new 0 0 300 300;" xml:space="preserve"> <style type="text/css"> .st0{fill:#FFFFFF;} .st1{fill:#78993D;} .st2{fill:#246923;} .st3{fill:#FFC901;} .st4{fill:#66CC00;} .st5{fill:url(#SVGID_1_);} .st6{fill:url(#SVGID_00000010282895478696635510000016705575427168174512_);} .st7{fill:url(#SVGID_00000023258191448924249950000011459638454395988115_);} .st8{fill:url(#SVGID_00000084513479706466788010000013968634264287307930_);} .st9{fill:url(#SVGID_00000108307661412130773350000017488548649559961501_);} .st10{fill:none;} .st11{fill:url(#SVGID_00000037670742144714980660000004791514325110651803_);} .st12{fill:url(#SVGID_00000098937425856184134930000009227822335119315389_);} .st13{fill:url(#SVGID_00000001658414633193980970000009471850690551145106_);} .st14{fill:url(#SVGID_00000025424422475074018870000018412064625147041926_);} .st15{fill:url(#SVGID_00000097459512628947362750000014904672412564309676_);} .st16{fill:url(#SVGID_00000016058263960048647150000013122611855840857518_);} .st17{fill:url(#SVGID_00000039104000437852351160000010240312002283792318_);} .st18{fill:url(#SVGID_00000170981113827729170470000011650579417808135042_);} .st19{fill:url(#SVGID_00000013185850594118426670000004516291209452688275_);} .st20{fill:url(#SVGID_00000173136257484751800800000017594033215244092040_);} .st21{fill:url(#SVGID_00000140707450541663978990000005279266144209750947_);} .st22{fill:url(#SVGID_00000017490814756578332990000001800789828020141710_);} .st23{fill:url(#SVGID_00000136379923902368048450000006095518022987597995_);} .st24{fill:url(#SVGID_00000171709051230392179930000001901388458601500302_);} .st25{fill:url(#SVGID_00000163756755044875109390000011370108757376918700_);} .st26{fill:url(#SVGID_00000067953601498350751920000007806714641016285088_);} .st27{fill:url(#SVGID_00000148624086269662944140000005736492574550588854_);} .st28{fill:url(#SVGID_00000025427726532593499190000013043198579975009169_);} .st29{fill:url(#SVGID_00000019646419277439113970000012828595682658560141_);} .st30{fill:url(#SVGID_00000151544784164324227900000017808422004423725223_);} .st31{fill:url(#SVGID_00000167355746415444962420000001370150061797188276_);} .st32{fill:url(#SVGID_00000135656424447130389830000001047479511834509955_);} .st33{fill:url(#SVGID_00000119797463866838202810000012743229783013941648_);} .st34{fill:url(#SVGID_00000079455261704922856600000008184889416618366865_);} .st35{fill:url(#SVGID_00000116956773232140270320000012989858392983484325_);} .st36{fill:none;stroke:#000000;stroke-width:2;stroke-miterlimit:10;} .st37{fill:#FFFFFF;stroke:#231F20;stroke-width:2;stroke-miterlimit:10;} .st38{fill:#336633;} .st39{fill:url(#SVGID_00000176724469824923593100000015957498401051858052_);} .st40{fill:url(#SVGID_00000133486873506291005550000004693291871210325933_);} .st41{fill:url(#SVGID_00000180338774550390667620000006057673630109278385_);} .st42{fill:url(#SVGID_00000125564854478827608880000009502806440073446815_);} .st43{fill:url(#SVGID_00000152239953434851259680000011475072297299625090_);} .st44{fill:url(#SVGID_00000169544071078499696410000011888961566403040702_);} .st45{fill:url(#SVGID_00000167389491934565597750000017888205166145253550_);} .st46{fill:url(#SVGID_00000044158202873952344780000013585345091746542002_);} .st47{fill:url(#SVGID_00000060740235366312247980000013466811126924060804_);} .st48{fill:url(#SVGID_00000165942725723637109660000016626892203177451400_);} .st49{fill:url(#SVGID_00000007404495590515380230000017516068788645722295_);} .st50{fill:url(#SVGID_00000016065603150378123860000001060336481342297986_);} .st51{fill:url(#SVGID_00000058562882937650430550000018154423230006572435_);} .st52{fill:url(#SVGID_00000093876197507917005670000006523210290199358100_);} .st53{fill:url(#SVGID_00000019680508955309519340000005331472427635063222_);} .st54{fill:url(#SVGID_00000036966709916201104330000016106329109907499672_);} .st55{fill:#231F20;} .st56{fill:url(#SVGID_00000065072914558495531950000006930145429930343815_);} .st57{fill:url(#SVGID_00000004526797401188873420000008426097273573813658_);} .st58{fill:url(#SVGID_00000127007945989531264710000014847286318631207307_);} .st59{fill:url(#SVGID_00000144328088488697021100000015180730850452034184_);} .st60{fill:url(#SVGID_00000140727526032853201210000017633786101598793106_);} .st61{fill:url(#SVGID_00000171719367809623804550000003471690429257167271_);} .st62{fill:url(#SVGID_00000124134308610451444800000008028234264727852170_);} .st63{fill:url(#SVGID_00000144302190283848600350000005352062221603687828_);} .st64{fill:url(#SVGID_00000034775833436709959440000012359665117450548868_);} .st65{fill:url(#SVGID_00000135665522911081353930000013321448641676960148_);} .st66{fill:url(#SVGID_00000075128889203766271090000015687963350300386463_);} .st67{fill:#007537;} .st68{fill:#8CC63F;} </style> <rect class="st0" width="300" height="300"></rect> <g> <g> <g> <path class="st67" d="M114.85,125.72L66.03,97.53l29.89-51.89c1.82-1.56,4.78-3.64,8.8-4.6c8.24-1.96,15.38,2.06,22.46,6.2 c5.38,3.15,13.82,9.02,21.76,19.42L114.85,125.72z"></path> </g> <g> <path class="st68" d="M222.04,67.7c-4.86-7.68-9.72-15.35-14.59-23.03c-0.87-1.34-2.69-3.75-5.85-5.62 c-2.77-1.64-5.37-2.15-6.9-2.34c-14.86-0.16-29.72-0.31-44.58-0.47h-39.96c4.6,0.8,10.71,2.38,17.37,5.63 c0.18,0.09,0.36,0.18,0.54,0.27c9.05,4.52,16.72,11.39,22.32,19.81l24.64,37.03l-13.34,8.88l54.57,4.35l17.07-52.01L222.04,67.7z "></path> </g> </g> <g> <g> <path class="st67" d="M196.14,128.75l50.34-25.4l27.03,53.44c0.31,2.38,0.43,5.99-0.98,9.88c-2.88,7.96-10.15,11.73-17.5,15.39 c-5.58,2.78-15.12,6.62-28.17,7.56L196.14,128.75z"></path> </g> <g> <path class="st68" d="M185.95,250.2c9.09,0.14,18.17,0.28,27.26,0.42c1.6,0.01,4.61-0.2,7.9-1.82c2.89-1.42,4.75-3.31,5.74-4.49 c8.27-12.34,16.55-24.69,24.82-37.03l21.9-33.43c-3.19,3.41-7.86,7.66-14.23,11.45c-0.17,0.1-0.35,0.2-0.52,0.31 c-8.74,5.09-18.69,7.75-28.8,7.82l-44.47,0.32l-0.12-16.03l-33.54,43.27l34.16,42.78L185.95,250.2z"></path> </g> </g> <g> <g> <path class="st67" d="M144.23,194.24l-0.87,56.37l-59.88-0.86c-2.25-0.83-5.51-2.4-8.3-5.45c-5.72-6.24-5.68-14.44-5.51-22.64 c0.13-6.23,1.16-16.46,6.38-28.46L144.23,194.24z"></path> </g> <g> <path class="st68" d="M41.38,128.84c-4.34,7.98-8.68,15.97-13.02,23.95c-0.75,1.41-1.96,4.17-2.06,7.84 c-0.08,3.22,0.73,5.74,1.31,7.17c7.09,13.06,14.19,26.12,21.28,39.17l19.45,34.91c-1.53-4.41-3.14-10.52-3.54-17.92 c-0.01-0.2-0.02-0.4-0.03-0.6c-0.45-10.11,1.81-20.15,6.44-29.14l20.36-39.54l14.25,7.34l-22.76-49.79l-53.74,10.4L41.38,128.84z "></path> </g> </g> </g> </svg>