<svg xmlns="http://www.w3.org/2000/svg" xmlns:xlink="http://www.w3.org/1999/xlink" id="Layer_1" x="0px" y="0px" viewBox="0 0 300 300" style="enable-background:new 0 0 300 300;" xml:space="preserve"> <style type="text/css"> .st0{fill:#FFFFFF;} .st1{fill:#78993D;} .st2{fill:#246923;} .st3{fill:#FFC901;} .st4{fill:#66CC00;} .st5{fill:url(#SVGID_1_);} .st6{fill:url(#SVGID_00000065042320773845697760000008123092595101684398_);} .st7{fill:url(#SVGID_00000165202933671603163840000013150456229612486278_);} .st8{fill:url(#SVGID_00000126312218332977834690000005384649212040455573_);} .st9{fill:url(#SVGID_00000052796108836391256430000012782243234253257093_);} .st10{fill:none;} .st11{fill:url(#SVGID_00000012431551106303141740000003770581760316057524_);} .st12{fill:url(#SVGID_00000171718552338272361960000010217508085832816771_);} .st13{fill:url(#SVGID_00000144334817968410897560000003016342752611113602_);} .st14{fill:url(#SVGID_00000090252312651340179440000015937570290214758030_);} .st15{fill:url(#SVGID_00000029020977376915969940000014260580200302510216_);} .st16{fill:url(#SVGID_00000085244177483760527230000015739183859014151311_);} .st17{fill:url(#SVGID_00000008148292466012099420000016578049034794954938_);} .st18{fill:url(#SVGID_00000130643341423604850210000014574134551435127993_);} .st19{fill:url(#SVGID_00000053510278663888945670000000323438659290665137_);} .st20{fill:url(#SVGID_00000159454081065825607110000007160776702920182690_);} .st21{fill:url(#SVGID_00000141421256805120926380000008687511664739779506_);} .st22{fill:url(#SVGID_00000080187682722434359940000007661796164131463054_);} .st23{fill:url(#SVGID_00000135674834639887870200000001073750667269921422_);} .st24{fill:url(#SVGID_00000145780898559361683490000013784627600722625467_);} .st25{fill:url(#SVGID_00000160171787601745060290000003919738569225093561_);} .st26{fill:url(#SVGID_00000111159433487031678410000012684639803031360898_);} .st27{fill:url(#SVGID_00000078035011477833886810000012695619977435074735_);} .st28{fill:url(#SVGID_00000141453093377665235140000013807162487647869841_);} .st29{fill:url(#SVGID_00000167356868006386287370000006830809298996126092_);} .st30{fill:url(#SVGID_00000049218537952588910130000001832536777280733609_);} .st31{fill:url(#SVGID_00000103245715150936135590000007477535363097463705_);} .st32{fill:url(#SVGID_00000152956075246121156980000009716565016847930555_);} .st33{fill:url(#SVGID_00000160171887467367091970000001518116391564498565_);} .st34{fill:url(#SVGID_00000082359880100373273260000007533649757530739118_);} .st35{fill:url(#SVGID_00000062185426555100945960000013641324625475865473_);} .st36{fill:none;stroke:#000000;stroke-width:2;stroke-miterlimit:10;} .st37{fill:#FFFFFF;stroke:#231F20;stroke-width:2;stroke-miterlimit:10;} .st38{fill:#336633;} .st39{fill:url(#SVGID_00000081621044663496113550000007455432464483617155_);} .st40{fill:url(#SVGID_00000002378789678190438200000015034482588213387166_);} .st41{fill:url(#SVGID_00000047766839611656657850000013496522858022323340_);} .st42{fill:url(#SVGID_00000023974159209226205350000006786195991443888061_);} .st43{fill:url(#SVGID_00000077326744689050685780000001789610598974162080_);} .st44{fill:url(#SVGID_00000087401751940789155510000005351816888468991627_);} .st45{fill:url(#SVGID_00000106862832893267179800000015210936892972716168_);} .st46{fill:url(#SVGID_00000108269561479708909840000011405066451677384860_);} .st47{fill:url(#SVGID_00000039103222318020701800000016324530319319577734_);} .st48{fill:url(#SVGID_00000074418552296482122590000012642317432583798682_);} .st49{fill:url(#SVGID_00000028296896676197480330000014591997737042452638_);} .st50{fill:url(#SVGID_00000075125007642965632130000001694154078827771021_);} .st51{fill:url(#SVGID_00000101815418051396044440000016073363518737157309_);} .st52{fill:url(#SVGID_00000054230468628515826460000009500268572119172004_);} .st53{fill:url(#SVGID_00000090989932244060318770000017496795526780869554_);} .st54{fill:url(#SVGID_00000078020316136637228270000004732046568403843003_);} .st55{fill:#231F20;} .st56{fill:url(#SVGID_00000160156450648600762730000012394799791126018453_);} .st57{fill:url(#SVGID_00000107571042484972783030000002980712694644911283_);} .st58{fill:url(#SVGID_00000072241703600250987020000003639021949544754587_);} .st59{fill:url(#SVGID_00000050665378320860594910000015151980605698340278_);} .st60{fill:url(#SVGID_00000049220514838308798050000001223915725670979217_);} .st61{fill:url(#SVGID_00000099634684974184380920000006493821442609615006_);} .st62{fill:url(#SVGID_00000126305504026002043810000003817181186461515393_);} .st63{fill:url(#SVGID_00000002385431529811927620000001230817841699824034_);} .st64{fill:url(#SVGID_00000127030885981526243090000006961226618852792992_);} .st65{fill:url(#SVGID_00000066503093708179059030000015028120974764699284_);} .st66{fill:url(#SVGID_00000013167406619021306170000015273217393933057152_);} .st67{fill:#007537;} .st68{fill:#8CC63F;} </style> <rect class="st0" width="300" height="300"></rect> <g> <g> <polygon class="st68" points="216.9,90.34 84.52,90.34 106.96,33.81 194.46,33.81 "></polygon> </g> <g> <rect x="68.33" y="88.64" class="st67" width="163.35" height="26.14"></rect> </g> <g> <polygon class="st68" points="203.91,266.19 99.21,266.19 79.97,114.77 223.15,114.77 "></polygon> </g> <g> <path class="st67" d="M179.26,33.81v30.43c0,2.49-2.02,4.51-4.51,4.51h-48.07c-2.49,0-4.51-2.02-4.51-4.51V33.81H179.26z"></path> </g> <g> <g> <path class="st0" d="M127.02,163.42l-3.21-2.47c7.64-9.93,19.19-15.63,31.7-15.63c11.4,0,22.29,4.89,29.87,13.41l-3.03,2.69 c-6.81-7.66-16.6-12.05-26.84-12.05C144.27,149.37,133.89,154.49,127.02,163.42z"></path> </g> <g> <path class="st0" d="M163.47,224.47l-0.8-3.97c16.67-3.37,28.77-18.17,28.77-35.21c0-4.72-0.9-9.3-2.68-13.63l3.75-1.54 c1.98,4.82,2.98,9.92,2.98,15.17C195.48,204.25,182.02,220.72,163.47,224.47z"></path> </g> <g> <path class="st0" d="M151.53,225.06c-9.81-0.97-18.89-5.54-25.56-12.86c-6.71-7.37-10.41-16.93-10.41-26.91 c0-4.5,0.74-8.91,2.21-13.12l3.82,1.33c-1.31,3.78-1.98,7.75-1.98,11.8c0,18.55,13.9,33.91,32.33,35.74L151.53,225.06z"></path> </g> <g> <polygon class="st0" points="186.68,163.03 172.82,163.03 172.82,158.98 182.63,158.98 182.63,149.17 186.68,149.17 "></polygon> </g> <g> <polygon class="st0" points="124.08,183.46 119.18,174.96 110.68,179.87 108.65,176.36 120.66,169.43 127.59,181.44 "></polygon> </g> <g> <polygon class="st0" points="171.22,230.34 159.21,223.41 166.14,211.4 169.65,213.43 164.74,221.93 173.24,226.83 "></polygon> </g> </g> </g> </svg>