<svg xmlns="http://www.w3.org/2000/svg" xmlns:xlink="http://www.w3.org/1999/xlink" id="Layer_1" x="0px" y="0px" viewBox="0 0 1448 1448" style="enable-background:new 0 0 1448 1448;" xml:space="preserve"> <style type="text/css"> .st0{fill:#FFFFFF;} .st1{fill:#78993D;} .st2{fill:#246923;} .st3{fill:#FFC901;} .st4{fill:#66CC00;} .st5{fill:url(#SVGID_1_);} .st6{fill:url(#SVGID_00000120534941433614568660000010014415116454279342_);} .st7{fill:url(#SVGID_00000080912709611865976620000016505045443249172379_);} .st8{fill:url(#SVGID_00000122716331721793730010000010389298617663293317_);} .st9{fill:url(#SVGID_00000011012240834503514670000002033140967900342164_);} .st10{fill:none;} .st11{fill:url(#SVGID_00000090261776011751044560000005810843584846433921_);} .st12{fill:url(#SVGID_00000126283271672125695220000014512759251090277002_);} .st13{fill:url(#SVGID_00000023249377581641309800000001367853234230588850_);} .st14{fill:url(#SVGID_00000110457055991657389970000003420408495362279610_);} .st15{fill:url(#SVGID_00000093869000558484072260000014011185346519449515_);} .st16{fill:url(#SVGID_00000112618049731569484940000016070172614865322171_);} .st17{fill:url(#SVGID_00000066499578678343254500000017734624327714656417_);} .st18{fill:#58595B;} .st19{fill:url(#SVGID_00000169554212323548038470000017324783320296312759_);} .st20{fill:url(#SVGID_00000148622563032912878390000014174619234946315931_);} .st21{fill:url(#SVGID_00000008125729221492135640000011980417688479849373_);} .st22{fill:url(#SVGID_00000116913919021899738000000003856296258079519110_);} .st23{fill:url(#SVGID_00000183226864696488692450000005649000352369543328_);} .st24{fill:url(#SVGID_00000154414957904723841220000010353218590916859269_);} .st25{fill:url(#SVGID_00000112613661161274297170000007424561223350399905_);} .st26{fill:url(#SVGID_00000048464186220083598760000003329476851391377329_);} .st27{fill:url(#SVGID_00000035505034652106194200000007805911013134155406_);} .st28{fill:url(#SVGID_00000114060714943670323280000005452242934753984930_);} .st29{fill:url(#SVGID_00000101799703583702093290000000547695280064588204_);} .st30{fill:url(#SVGID_00000167375913664746233630000012052190708814945160_);} .st31{fill:none;stroke:#000000;stroke-width:2;stroke-miterlimit:10;} .st32{fill:#FFFFFF;stroke:#231F20;stroke-width:2;stroke-miterlimit:10;} .st33{fill:#336633;} .st34{fill:url(#SVGID_00000098905729827782449420000016756796304012360879_);} .st35{fill:url(#SVGID_00000157271181893960011340000001185412200973572543_);} .st36{fill:url(#SVGID_00000174560906841178228250000001860821089601527996_);} .st37{fill:url(#SVGID_00000052106363156337217890000003380605837539283593_);} .st38{fill:url(#SVGID_00000007427228412387739530000012663816351254348449_);} .st39{fill:url(#SVGID_00000132771085602385357560000000886087397268315551_);} .st40{fill:url(#SVGID_00000143613301279817354130000001378335473045704104_);} .st41{fill:url(#SVGID_00000114764987952322533300000009214919023691648667_);} .st42{fill:url(#SVGID_00000176018179096181090550000007541662282368901799_);} .st43{fill:url(#SVGID_00000096040410537408212000000008090810325286238900_);} .st44{fill:url(#SVGID_00000138539631462805821810000014491452008800643467_);} .st45{fill:url(#SVGID_00000180358242690083896500000006480615979889527180_);} .st46{fill:url(#SVGID_00000050643323349878090870000013561008697561715622_);} .st47{fill:url(#SVGID_00000069387549429761841800000017179347035324907191_);} .st48{fill:url(#SVGID_00000168796155605948153080000017857297243599489428_);} .st49{fill:url(#SVGID_00000137845088277325263360000017458996708355801744_);} .st50{fill:#231F20;} .st51{fill:url(#SVGID_00000183207610952821065110000016349282097104400288_);} .st52{fill:url(#SVGID_00000117667286047051957880000006523345910317942168_);} .st53{fill:url(#SVGID_00000140002995831321768550000013984809951758361259_);} .st54{fill:url(#SVGID_00000036225347449802776090000001229857634161404572_);} .st55{fill:url(#SVGID_00000138560748313655426800000010445239594728068739_);} .st56{fill:url(#SVGID_00000062161923521311445420000003462646758226675633_);} .st57{fill:url(#SVGID_00000159450010433189525710000000553096389114076843_);} .st58{fill:url(#SVGID_00000079468126916982786140000000686720366910143112_);} .st59{fill:url(#SVGID_00000147199559177868178480000014682623008892514984_);} .st60{fill:url(#SVGID_00000122679811549146282580000011362866290432527785_);} .st61{fill:url(#SVGID_00000142151205184897575730000013479900444065009572_);} .st62{fill:url(#SVGID_00000153664160010841952880000012214373142387513253_);} .st63{fill:url(#SVGID_00000178892612034592040040000018196411769855857075_);} .st64{fill:url(#SVGID_00000096053981008354117570000015873755163905351840_);} .st65{fill:url(#SVGID_00000134951627335046307350000009591745351474733195_);} .st66{fill:url(#SVGID_00000058585639017578236440000005601140524456437419_);} .st67{fill:url(#SVGID_00000079484815445587021550000004336980733404333987_);} .st68{fill:url(#SVGID_00000102523151352138516420000009241988695371218819_);} .st69{fill:url(#SVGID_00000089541690931438259170000007854613951335601068_);} .st70{fill:url(#SVGID_00000134223701888290957040000009393475196459497352_);} .st71{fill:url(#SVGID_00000081649401180402302730000016277373376573966737_);} .st72{fill:url(#SVGID_00000048487366489406895400000016087112849631894160_);} .st73{fill:url(#SVGID_00000136372264367462632690000006351732299247046536_);} .st74{fill:url(#SVGID_00000114059134675683742960000014794984386636831118_);} .st75{fill:url(#SVGID_00000039120317753652418940000003311860961189086868_);} .st76{fill:url(#SVGID_00000070801521646069591300000004803681368208639913_);} .st77{fill:url(#SVGID_00000017502957752288810800000014268623835517640087_);} .st78{fill:url(#SVGID_00000128479820516993154250000010716246864237686157_);} .st79{fill:url(#SVGID_00000020393240609065661450000000563778784171720077_);} .st80{fill:url(#SVGID_00000081608597495335653550000008053611112091624862_);} .st81{fill:url(#SVGID_00000008131768561116743670000010428832750568010168_);} .st82{fill:url(#SVGID_00000098203483025155378880000004222191085324493238_);} .st83{fill:url(#SVGID_00000158017171164178809950000005326438094863175324_);} .st84{fill:url(#SVGID_00000062156531102722790430000013764170095282472322_);} .st85{fill:url(#SVGID_00000031901074668994950420000013594787729691485098_);} .st86{fill:url(#SVGID_00000039126383774265545390000007216438588602452147_);} .st87{fill:url(#SVGID_00000021805176660676344340000002712371140981782668_);} .st88{fill:url(#SVGID_00000015344140191256810360000007739382437719596188_);} .st89{fill:url(#SVGID_00000004531885218287616000000005949791005705324718_);} .st90{fill:url(#SVGID_00000114064611475584538310000005591633654084370080_);} .st91{fill:url(#SVGID_00000173858463905950435220000014631217209420375947_);} .st92{fill:url(#SVGID_00000049939353717145465470000011848937615041336711_);} .st93{fill:url(#SVGID_00000103982038184792519220000009563017055329055415_);} .st94{fill:url(#SVGID_00000150100495701722503380000004886131695778261899_);} .st95{fill:url(#SVGID_00000153693012426777660800000004576712864959452568_);} .st96{fill:url(#SVGID_00000157293280723673120070000006376665225522142636_);} .st97{fill:url(#SVGID_00000042001325372507889930000011368642335933400760_);} .st98{fill:url(#SVGID_00000016073778661376509900000009588928991265650068_);} .st99{fill:url(#SVGID_00000078729701505566640210000016207434177879642255_);} .st100{fill:url(#SVGID_00000032620737808880431660000004020837683650297997_);} .st101{fill:url(#SVGID_00000041281050153003904460000012939447026618385024_);} .st102{fill:#78993D;stroke:#FFFFFF;stroke-width:10;stroke-linecap:round;stroke-linejoin:round;stroke-miterlimit:10;} .st103{fill:#246923;stroke:#FFFFFF;stroke-width:12;stroke-linecap:round;stroke-linejoin:round;stroke-miterlimit:10;} .st104{fill:#FFC901;stroke:#FFFFFF;stroke-width:12;stroke-linecap:round;stroke-linejoin:round;stroke-miterlimit:10;} .st105{fill:#66CC00;stroke:#FFFFFF;stroke-width:12;stroke-linecap:round;stroke-linejoin:round;stroke-miterlimit:10;} </style> <g> <g> <path class="st0" d="M248.65,1312.78l-19.92-65.38l-0.1-0.39c0-0.64,0.35-0.97,1.06-0.97h12.19c0.71,0,1.16,0.32,1.35,0.97 l12.86,47.2c0.06,0.19,0.16,0.29,0.29,0.29s0.23-0.1,0.29-0.29l12.67-47.2c0.19-0.64,0.64-0.97,1.35-0.97h11.9 c0.39,0,0.68,0.13,0.87,0.39c0.19,0.26,0.22,0.58,0.1,0.97l-20.21,65.38c-0.19,0.65-0.61,0.97-1.26,0.97h-12.19 C249.26,1313.75,248.84,1313.43,248.65,1312.78z"></path> <path class="st0" d="M304.07,1239.28c0,0.52-0.32,0.77-0.97,0.77h-8.12c-0.58,0-1.03-0.26-1.35-0.77l-6.87-9.77 c-0.13-0.19-0.19-0.42-0.19-0.68c0-0.52,0.32-0.77,0.97-0.77h9.77c0.64,0,1.13,0.29,1.45,0.87l5.13,9.77 C304,1238.96,304.07,1239.15,304.07,1239.28z M292.41,1313.41c-0.23-0.23-0.34-0.5-0.34-0.82v-65.38c0-0.32,0.11-0.6,0.34-0.82 c0.23-0.23,0.5-0.34,0.82-0.34h11.32c0.32,0,0.6,0.11,0.82,0.34c0.23,0.23,0.34,0.5,0.34,0.82v65.38c0,0.32-0.11,0.6-0.34,0.82 c-0.23,0.23-0.5,0.34-0.82,0.34h-11.32C292.91,1313.75,292.64,1313.64,292.41,1313.41z"></path> <path class="st0" d="M381.73,1246.05h11.32c0.32,0,0.59,0.11,0.82,0.34c0.23,0.23,0.34,0.5,0.34,0.82v65.38 c0,0.32-0.11,0.6-0.34,0.82c-0.23,0.23-0.5,0.34-0.82,0.34h-11.32c-0.32,0-0.6-0.11-0.82-0.34c-0.23-0.23-0.34-0.5-0.34-0.82 v-42.65c0-0.26-0.06-0.39-0.19-0.39c-0.13,0-0.26,0.1-0.39,0.29l-10.25,16.06c-0.32,0.52-0.77,0.77-1.35,0.77h-5.71 c-0.58,0-1.03-0.26-1.35-0.77l-10.25-16.06c-0.13-0.19-0.26-0.27-0.39-0.24c-0.13,0.03-0.19,0.18-0.19,0.43v42.55 c0,0.32-0.11,0.6-0.34,0.82c-0.23,0.23-0.5,0.34-0.82,0.34h-11.32c-0.32,0-0.6-0.11-0.82-0.34c-0.23-0.23-0.34-0.5-0.34-0.82 v-65.38c0-0.32,0.11-0.6,0.34-0.82c0.23-0.23,0.5-0.34,0.82-0.34h11.32c0.58,0,1.03,0.26,1.35,0.77l14.51,22.53 c0.19,0.39,0.39,0.39,0.58,0l14.6-22.53C380.69,1246.31,381.15,1246.05,381.73,1246.05z"></path> <path class="st0" d="M416.79,1311.72c-3.84-2.06-6.82-4.95-8.95-8.66c-2.13-3.71-3.19-7.98-3.19-12.81v-20.7 c0-4.77,1.06-8.99,3.19-12.67c2.13-3.68,5.11-6.53,8.95-8.56c3.83-2.03,8.27-3.05,13.3-3.05c5.09,0,9.56,1.02,13.4,3.05 c3.84,2.03,6.82,4.88,8.95,8.56c2.13,3.68,3.19,7.9,3.19,12.67v20.7c0,4.84-1.06,9.12-3.19,12.86c-2.13,3.74-5.11,6.62-8.95,8.66 c-3.84,2.03-8.3,3.05-13.4,3.05C425.05,1314.81,420.62,1313.78,416.79,1311.72z M414.95,1240.01c-0.16-0.29-0.11-0.63,0.14-1.02 l7.06-10.15c0.32-0.52,0.77-0.77,1.35-0.77h12.86c0.58,0,1.03,0.26,1.35,0.77l7.35,10.15c0.19,0.26,0.29,0.48,0.29,0.68 c0,0.52-0.36,0.77-1.06,0.77h-8.71c-0.58,0-1.03-0.26-1.35-0.77l-3.87-5.9c-0.19-0.39-0.39-0.39-0.58,0l-3.87,5.9 c-0.32,0.52-0.77,0.77-1.35,0.77h-8.7C415.41,1240.44,415.11,1240.3,414.95,1240.01z M438.69,1299.73 c2.19-2.26,3.29-5.25,3.29-8.99v-21.28c0-3.74-1.08-6.75-3.24-9.04c-2.16-2.29-5.05-3.43-8.66-3.43c-3.55,0-6.4,1.15-8.56,3.43 c-2.16,2.29-3.24,5.3-3.24,9.04v21.28c0,3.74,1.08,6.74,3.24,8.99c2.16,2.26,5.01,3.39,8.56,3.39 C433.63,1303.11,436.5,1301.98,438.69,1299.73z M424.96,1332.56c-1.35-1.39-2.03-3.11-2.03-5.17c0-2.19,0.68-3.95,2.03-5.27 c1.35-1.32,3.1-1.98,5.22-1.98c2.13,0,3.87,0.66,5.22,1.98c1.35,1.32,2.03,3.08,2.03,5.27c0,2.06-0.69,3.79-2.08,5.17 c-1.39,1.39-3.11,2.08-5.17,2.08C428.05,1334.64,426.31,1333.95,424.96,1332.56z"></path> <path class="st0" d="M512.82,1246.39c0.23,0.23,0.34,0.5,0.34,0.82v9.48c0,0.32-0.11,0.6-0.34,0.82c-0.23,0.23-0.5,0.34-0.82,0.34 h-17.31c-0.32,0-0.48,0.16-0.48,0.48v54.26c0,0.32-0.11,0.6-0.34,0.82c-0.23,0.23-0.5,0.34-0.82,0.34h-11.32 c-0.32,0-0.6-0.11-0.82-0.34c-0.23-0.23-0.34-0.5-0.34-0.82v-54.26c0-0.32-0.16-0.48-0.48-0.48h-16.83c-0.32,0-0.6-0.11-0.82-0.34 c-0.23-0.23-0.34-0.5-0.34-0.82v-9.48c0-0.32,0.11-0.6,0.34-0.82c0.23-0.23,0.5-0.34,0.82-0.34H512 C512.32,1246.05,512.59,1246.16,512.82,1246.39z"></path> <path class="st0" d="M557.94,1312.78l-19.92-65.38l-0.1-0.39c0-0.64,0.35-0.97,1.06-0.97h12.19c0.71,0,1.16,0.32,1.35,0.97 l12.86,47.2c0.06,0.19,0.16,0.29,0.29,0.29s0.23-0.1,0.29-0.29l12.67-47.2c0.19-0.64,0.64-0.97,1.35-0.97h11.9 c0.39,0,0.68,0.13,0.87,0.39c0.19,0.26,0.22,0.58,0.1,0.97l-20.21,65.38c-0.19,0.65-0.61,0.97-1.26,0.97H559.2 C558.55,1313.75,558.13,1313.43,557.94,1312.78z"></path> <path class="st0" d="M601.7,1313.41c-0.23-0.23-0.34-0.5-0.34-0.82v-65.38c0-0.32,0.11-0.6,0.34-0.82 c0.23-0.23,0.5-0.34,0.82-0.34h11.32c0.32,0,0.6,0.11,0.82,0.34c0.23,0.23,0.34,0.5,0.34,0.82v65.38c0,0.32-0.11,0.6-0.34,0.82 c-0.23,0.23-0.5,0.34-0.82,0.34h-11.32C602.2,1313.75,601.93,1313.64,601.7,1313.41z"></path> <path class="st0" d="M673.46,1257.41c-0.23,0.23-0.5,0.34-0.82,0.34h-31.72c-0.32,0-0.48,0.16-0.48,0.48v14.99 c0,0.32,0.16,0.48,0.48,0.48h20.79c0.32,0,0.59,0.11,0.82,0.34c0.23,0.23,0.34,0.5,0.34,0.82v9.38c0,0.32-0.11,0.6-0.34,0.82 c-0.23,0.23-0.5,0.34-0.82,0.34h-20.79c-0.32,0-0.48,0.16-0.48,0.48v15.67c0,0.32,0.16,0.48,0.48,0.48h31.72 c0.32,0,0.6,0.11,0.82,0.34c0.23,0.23,0.34,0.5,0.34,0.82v9.38c0,0.32-0.11,0.6-0.34,0.82c-0.23,0.23-0.5,0.34-0.82,0.34h-44.68 c-0.32,0-0.6-0.11-0.82-0.34c-0.23-0.23-0.34-0.5-0.34-0.82v-65.38c0-0.32,0.11-0.6,0.34-0.82c0.23-0.23,0.5-0.34,0.82-0.34h44.68 c0.32,0,0.6,0.11,0.82,0.34c0.23,0.23,0.34,0.5,0.34,0.82v9.38C673.8,1256.92,673.69,1257.19,673.46,1257.41z M634.87,1240.01 c-0.16-0.29-0.11-0.63,0.15-1.02l7.06-10.15c0.32-0.52,0.77-0.77,1.35-0.77h12.86c0.58,0,1.03,0.26,1.35,0.77l7.35,10.15 c0.19,0.26,0.29,0.48,0.29,0.68c0,0.52-0.35,0.77-1.06,0.77h-8.7c-0.58,0-1.03-0.26-1.35-0.77l-3.87-5.9 c-0.19-0.39-0.39-0.39-0.58,0l-3.87,5.9c-0.32,0.52-0.77,0.77-1.35,0.77h-8.71C635.34,1240.44,635.03,1240.3,634.87,1240.01z M645.56,1332.56c-1.35-1.39-2.03-3.11-2.03-5.17c0-2.19,0.68-3.95,2.03-5.27c1.35-1.32,3.09-1.98,5.22-1.98 c2.13,0,3.87,0.66,5.22,1.98c1.35,1.32,2.03,3.08,2.03,5.27c0,2.06-0.69,3.79-2.08,5.17c-1.39,1.39-3.11,2.08-5.17,2.08 C648.66,1334.64,646.91,1333.95,645.56,1332.56z"></path> <path class="st0" d="M730.81,1246.39c0.23,0.23,0.34,0.5,0.34,0.82v9.48c0,0.32-0.11,0.6-0.34,0.82c-0.23,0.23-0.5,0.34-0.82,0.34 h-17.31c-0.32,0-0.48,0.16-0.48,0.48v54.26c0,0.32-0.11,0.6-0.34,0.82c-0.23,0.23-0.5,0.34-0.82,0.34h-11.32 c-0.32,0-0.6-0.11-0.82-0.34c-0.23-0.23-0.34-0.5-0.34-0.82v-54.26c0-0.32-0.16-0.48-0.48-0.48h-16.83c-0.32,0-0.6-0.11-0.82-0.34 c-0.23-0.23-0.34-0.5-0.34-0.82v-9.48c0-0.32,0.11-0.6,0.34-0.82c0.23-0.23,0.5-0.34,0.82-0.34h48.75 C730.31,1246.05,730.59,1246.16,730.81,1246.39z"></path> <path class="st0" d="M798.42,1246.39c0.23-0.23,0.5-0.34,0.82-0.34h11.32c0.32,0,0.6,0.11,0.82,0.34c0.23,0.23,0.34,0.5,0.34,0.82 v65.38c0,0.32-0.11,0.6-0.34,0.82c-0.23,0.23-0.5,0.34-0.82,0.34h-10.93c-0.65,0-1.1-0.26-1.35-0.77l-25.05-41.39 c-0.13-0.19-0.26-0.27-0.39-0.24c-0.13,0.03-0.19,0.18-0.19,0.44l0.19,40.81c0,0.32-0.11,0.6-0.34,0.82 c-0.23,0.23-0.5,0.34-0.82,0.34h-11.32c-0.32,0-0.6-0.11-0.82-0.34c-0.23-0.23-0.34-0.5-0.34-0.82v-65.38 c0-0.32,0.11-0.6,0.34-0.82c0.23-0.23,0.5-0.34,0.82-0.34h10.93c0.64,0,1.1,0.26,1.35,0.77l24.95,41.2 c0.13,0.19,0.26,0.28,0.39,0.24c0.13-0.03,0.19-0.18,0.19-0.44l-0.1-40.62C798.08,1246.89,798.19,1246.61,798.42,1246.39z"></path> <path class="st0" d="M865.3,1312.78l-2.9-9.48c-0.13-0.26-0.29-0.39-0.48-0.39h-23.79c-0.19,0-0.35,0.13-0.48,0.39l-2.8,9.48 c-0.19,0.65-0.61,0.97-1.26,0.97h-12.28c-0.39,0-0.68-0.11-0.87-0.34c-0.19-0.23-0.23-0.56-0.1-1.02l20.89-65.38 c0.19-0.64,0.61-0.97,1.26-0.97h15.18c0.64,0,1.06,0.32,1.26,0.97l20.89,65.38c0.06,0.13,0.1,0.29,0.1,0.48 c0,0.58-0.35,0.87-1.06,0.87h-12.28C865.91,1313.75,865.49,1313.43,865.3,1312.78z M841.5,1292.38h17.02 c0.39,0,0.52-0.19,0.39-0.58l-8.71-28.72c-0.06-0.26-0.16-0.37-0.29-0.34c-0.13,0.03-0.23,0.15-0.29,0.34l-8.51,28.72 C841.05,1292.18,841.18,1292.38,841.5,1292.38z"></path> <path class="st0" d="M933.29,1246.05h11.32c0.32,0,0.59,0.11,0.82,0.34c0.23,0.23,0.34,0.5,0.34,0.82v65.38 c0,0.32-0.11,0.6-0.34,0.82c-0.23,0.23-0.5,0.34-0.82,0.34h-11.32c-0.32,0-0.6-0.11-0.82-0.34c-0.23-0.23-0.34-0.5-0.34-0.82 v-42.65c0-0.26-0.06-0.39-0.19-0.39s-0.26,0.1-0.39,0.29l-10.25,16.06c-0.32,0.52-0.77,0.77-1.35,0.77h-5.71 c-0.58,0-1.03-0.26-1.35-0.77l-10.25-16.06c-0.13-0.19-0.26-0.27-0.39-0.24c-0.13,0.03-0.19,0.18-0.19,0.43v42.55 c0,0.32-0.11,0.6-0.34,0.82c-0.23,0.23-0.5,0.34-0.82,0.34h-11.32c-0.32,0-0.6-0.11-0.82-0.34c-0.23-0.23-0.34-0.5-0.34-0.82 v-65.38c0-0.32,0.11-0.6,0.34-0.82c0.23-0.23,0.5-0.34,0.82-0.34h11.32c0.58,0,1.03,0.26,1.35,0.77l14.51,22.53 c0.19,0.39,0.39,0.39,0.58,0l14.6-22.53C932.25,1246.31,932.7,1246.05,933.29,1246.05z"></path> <path class="st0" d="M974,1313.36c-0.19-0.26-0.16-0.58,0.1-0.97l18.76-32.21c0.13-0.19,0.13-0.39,0-0.58l-18.76-32.21l-0.19-0.58 c0-0.52,0.35-0.77,1.06-0.77h12.28c0.64,0,1.13,0.26,1.45,0.77l12.57,22.15c0.19,0.39,0.39,0.39,0.58,0l12.57-22.15 c0.32-0.52,0.8-0.77,1.45-0.77h12.19c0.45,0,0.77,0.13,0.97,0.39c0.19,0.26,0.16,0.58-0.1,0.97l-18.76,32.21 c-0.06,0.19-0.06,0.39,0,0.58l18.76,32.21l0.19,0.58c0,0.52-0.36,0.77-1.06,0.77h-12.19c-0.65,0-1.13-0.26-1.45-0.77l-12.57-22.05 c-0.19-0.39-0.39-0.39-0.58,0l-12.67,22.05c-0.32,0.52-0.81,0.77-1.45,0.77h-12.19C974.52,1313.75,974.2,1313.62,974,1313.36z"></path> <path class="st0" d="M1079.71,1312.78l-2.9-9.48c-0.13-0.26-0.29-0.39-0.48-0.39h-23.79c-0.19,0-0.35,0.13-0.48,0.39l-2.8,9.48 c-0.19,0.65-0.61,0.97-1.26,0.97h-12.28c-0.39,0-0.68-0.11-0.87-0.34c-0.19-0.23-0.23-0.56-0.1-1.02l20.89-65.38 c0.19-0.64,0.61-0.97,1.26-0.97h15.18c0.64,0,1.06,0.32,1.26,0.97l20.89,65.38c0.06,0.13,0.1,0.29,0.1,0.48 c0,0.58-0.35,0.87-1.06,0.87h-12.28C1080.32,1313.75,1079.91,1313.43,1079.71,1312.78z M1055.92,1292.38h17.02 c0.39,0,0.52-0.19,0.39-0.58l-8.71-28.72c-0.06-0.26-0.16-0.37-0.29-0.34c-0.13,0.03-0.23,0.15-0.29,0.34l-8.51,28.72 C1055.47,1292.18,1055.6,1292.38,1055.92,1292.38z"></path> <path class="st0" d="M1142.04,1246.39c0.23-0.23,0.5-0.34,0.82-0.34h11.32c0.32,0,0.6,0.11,0.82,0.34 c0.23,0.23,0.34,0.5,0.34,0.82v65.38c0,0.32-0.11,0.6-0.34,0.82c-0.23,0.23-0.5,0.34-0.82,0.34h-10.93c-0.65,0-1.1-0.26-1.35-0.77 l-25.05-41.39c-0.13-0.19-0.26-0.27-0.39-0.24c-0.13,0.03-0.19,0.18-0.19,0.44l0.19,40.81c0,0.32-0.11,0.6-0.34,0.82 c-0.23,0.23-0.5,0.34-0.82,0.34h-11.32c-0.32,0-0.6-0.11-0.82-0.34c-0.23-0.23-0.34-0.5-0.34-0.82v-65.38 c0-0.32,0.11-0.6,0.34-0.82c0.23-0.23,0.5-0.34,0.82-0.34h10.93c0.64,0,1.1,0.26,1.35,0.77l24.95,41.2 c0.13,0.19,0.26,0.28,0.39,0.24c0.13-0.03,0.19-0.18,0.19-0.44l-0.1-40.62C1141.7,1246.89,1141.82,1246.61,1142.04,1246.39z"></path> <path class="st0" d="M1203.46,1246.39c0.23-0.23,0.5-0.34,0.82-0.34h11.32c0.32,0,0.6,0.11,0.82,0.34 c0.23,0.23,0.34,0.5,0.34,0.82v65.38c0,0.32-0.11,0.6-0.34,0.82c-0.23,0.23-0.5,0.34-0.82,0.34h-11.32c-0.32,0-0.6-0.11-0.82-0.34 c-0.23-0.23-0.34-0.5-0.34-0.82v-26.69c0-0.32-0.16-0.48-0.48-0.48h-21.37c-0.32,0-0.48,0.16-0.48,0.48v26.69 c0,0.32-0.11,0.6-0.34,0.82c-0.23,0.23-0.5,0.34-0.82,0.34h-11.32c-0.32,0-0.6-0.11-0.82-0.34c-0.23-0.23-0.34-0.5-0.34-0.82 v-65.38c0-0.32,0.11-0.6,0.34-0.82c0.23-0.23,0.5-0.34,0.82-0.34h11.32c0.32,0,0.6,0.11,0.82,0.34c0.23,0.23,0.34,0.5,0.34,0.82 v26.02c0,0.32,0.16,0.48,0.48,0.48h21.37c0.32,0,0.48-0.16,0.48-0.48v-26.02C1203.12,1246.89,1203.23,1246.61,1203.46,1246.39z"></path> </g> <g> <path class="st0" d="M1288.76,985.48c0-15.54,0-31.08,0-46.62c-38.82,0.01-77.64,0.02-116.46,0.03v232.88c15.53,0,31.07,0,46.6,0 c-0.01-31.09-0.02-62.19-0.02-93.28c23.26,0.03,46.52,0.05,69.78,0.08c0-15.52,0-31.04,0-46.56c-23.24,0.04-46.47,0.08-69.71,0.12 c-0.02-15.55-0.03-31.1-0.05-46.65C1242.18,985.47,1265.47,985.47,1288.76,985.48z"></path> <path class="st0" d="M997.63,1125.23c0-62.11,0-124.23,0-186.34c-15.52,0-31.05,0-46.57,0v232.88h31.76h15.7 c26.87,0,53.74,0,80.62,0c0-15.53,0-31.06,0-46.59C1051.97,1125.19,1024.8,1125.21,997.63,1125.23z"></path> <g> <path class="st0" d="M1125.72,958.8c-12.86,0-23.29-4.46-23.29-9.96v212.97c0,5.5,10.43,9.96,23.29,9.96 c12.86,0,23.29-4.46,23.29-9.96V948.84C1149.01,954.34,1138.58,958.8,1125.72,958.8z"></path> <ellipse class="st50" cx="1125.72" cy="948.84" rx="23.29" ry="9.96"></ellipse> </g> <path class="st0" d="M196.48,1055.33L196.48,1055.33l-72.14,0v0v34.69v11.87h52.08c-12.79,14.3-31.38,23.3-52.08,23.3 c-38.58,0-69.86-31.28-69.86-69.86c0-17.89,6.73-34.22,17.8-46.58c12.79-14.29,31.38-23.29,52.07-23.29 c19.26,0,36.69,7.8,49.33,20.4l32.89-32.99c-21.06-21-50.12-33.99-82.22-33.99c-47.75,0-88.78,28.74-106.75,69.86 c-6.23,14.26-9.69,30.02-9.69,46.58c0,64.31,52.13,116.44,116.44,116.44s116.44-52.13,116.44-116.44H196.48z"></path> <path class="st0" d="M1440.08,985.38c0.01-15.5,0.02-31,0.03-46.49c-42.69,0-85.39,0-128.08,0c0,77.63,0,155.25,0,232.88 c42.69,0,85.39,0,128.08,0c0-15.53,0-31.05,0-46.58c-27.17,0-54.34,0-81.5,0c-0.01-15.53-0.01-31.05-0.02-46.58 c27.17,0.01,54.34,0.02,81.5,0.03c-0.02-15.54-0.03-31.09-0.05-46.63c-27.14,0.01-54.29,0.02-81.43,0.03 c0-15.53-0.01-31.05-0.01-46.58C1385.76,985.43,1412.92,985.41,1440.08,985.38z"></path> <path class="st0" d="M741.43,985.38c0.01-15.5,0.02-31,0.03-46.49c-42.69,0-85.39,0-128.08,0c0,77.63,0,155.25,0,232.88 c42.69,0,85.39,0,128.08,0c0-15.53,0-31.05,0-46.58c-27.17,0-54.34,0-81.5,0c-0.01-15.53-0.01-31.05-0.02-46.58 c27.17,0.01,54.34,0.02,81.5,0.03c-0.02-15.54-0.03-31.09-0.05-46.63c-27.14,0.01-54.29,0.02-81.43,0.03 c0-15.53-0.01-31.05-0.01-46.58C687.11,985.43,714.27,985.41,741.43,985.38z"></path> <path class="st0" d="M590.07,985.38c0.01-15.5,0.02-31,0.03-46.49c-42.69,0-85.39,0-128.08,0c0,77.63,0,155.25,0,232.88 c42.69,0,85.39,0,128.08,0c0-15.53,0-31.05,0-46.58c-27.17,0-54.34,0-81.5,0c-0.01-15.53-0.01-31.05-0.02-46.58 c27.17,0.01,54.34,0.02,81.5,0.03c-0.02-15.54-0.03-31.09-0.05-46.63c-27.14,0.01-54.29,0.02-81.43,0.03 c0-15.53-0.01-31.05-0.01-46.58C535.74,985.43,562.91,985.41,590.07,985.38z"></path> <g> <g> <path class="st0" d="M374.21,1068.3c34.55-10.69,52.37-31.45,52.37-61.94c0-19.8-8.34-37.3-22.04-48.65 c-18.18-15.22-42.48-18.83-77.04-18.83h-63.44v232.88c15.54-0.01,31.08-0.02,46.62-0.03c0-62.09,0-124.19,0-186.28 c15.58-0.01,31.15-0.02,46.73-0.03c0.07,0.01,0.17,0.02,0.27,0.04c12.62,0.22,22.88,10.61,22.88,23.28v0 c0,12.8-10.48,23.28-23.28,23.28h0c-0.33,0-0.66-0.01-0.98-0.02c-7.42,0.01-14.83,0.02-22.25,0.02 c0,19.41-0.01,38.81-0.01,58.22c16.04,27.17,32.08,54.34,48.11,81.51h56.6L374.21,1068.3z"></path> </g> </g> <path class="st0" d="M881.2,938.88c0,42.7,0,85.39,0,128.09c-23.29-42.7-46.58-85.39-69.87-128.09c-15.52,0-31.05,0-46.57,0 v232.88c15.53,0,31.05,0,46.58,0c0-42.7,0-85.4,0-128.1c23.26,42.7,46.52,85.4,69.79,128.1c15.55,0,31.1,0,46.65,0 c0-77.63,0-155.26,0-232.88C912.24,938.88,896.72,938.88,881.2,938.88z"></path> </g> <g> <g> <g> <g> <linearGradient id="SVGID_1_" gradientUnits="userSpaceOnUse" x1="447.84" y1="393.335" x2="447.84" y2="895.0234"> <stop offset="0" style="stop-color:#FFFFFF"></stop> <stop offset="1" style="stop-color:#FFFFFF;stop-opacity:0"></stop> </linearGradient> <path class="st5" d="M409.65,530.72c0,0-16.4,12.25-2.96,22.52s29.05,17.98,92.67,23.51c0,0-57.3,2.37-88.52-14.42 C379.62,545.54,408.27,531.12,409.65,530.72z"></path> <g> <linearGradient id="SVGID_00000177452243370066629240000000557922875662209459_" gradientUnits="userSpaceOnUse" x1="524.0703" y1="393.335" x2="524.0703" y2="895.0234"> <stop offset="0" style="stop-color:#FFFFFF"></stop> <stop offset="1" style="stop-color:#FFFFFF;stop-opacity:0"></stop> </linearGradient> <path style="fill:url(#SVGID_00000177452243370066629240000000557922875662209459_);" d="M522.23,528.93 c1.29-0.23,2.53-0.66,3.69-1.23C523.38,527.15,522.43,527.85,522.23,528.93z"></path> <linearGradient id="SVGID_00000064313920691746517060000009256963650621286545_" gradientUnits="userSpaceOnUse" x1="514.2985" y1="393.335" x2="514.2985" y2="895.0234"> <stop offset="0" style="stop-color:#FFFFFF"></stop> <stop offset="1" style="stop-color:#FFFFFF;stop-opacity:0"></stop> </linearGradient> <path style="fill:url(#SVGID_00000064313920691746517060000009256963650621286545_);" d="M518.33,528.94 c-10.08-1.79-13.24,2.77-13.24,2.77l18.42,1.7c0,0-1.61-2.73-1.28-4.48C520.98,529.15,519.67,529.18,518.33,528.94z"></path> <linearGradient id="SVGID_00000042701949698236073350000000379025289829795766_" gradientUnits="userSpaceOnUse" x1="718.1246" y1="393.335" x2="718.1246" y2="895.0234"> <stop offset="0" style="stop-color:#FFFFFF"></stop> <stop offset="1" style="stop-color:#FFFFFF;stop-opacity:0"></stop> </linearGradient> <path style="fill:url(#SVGID_00000042701949698236073350000000379025289829795766_);" d="M980.09,626.95 c-21.54-3.36-43.86-8.5-51.77-16.2c-7.9-7.71,17.59-9.88,24.11-12.05c6.52-2.17-37.94-10.67-48.21-11.66 c-10.27-0.99-9.29-7.71-0.4-8.69c8.89-0.99,11.46-1.98,17.78-7.31c6.32-5.33-41.49-14.82-41.49-14.82 s-276.23-27.46-290.26-26.87c-14.03,0.59-53.74-11.46-53.74-11.46s-4.08,6.81-10.19,9.83c0.75,0.16,1.63,0.43,2.69,0.84 c10.33,4.02-1.98,10.67-14.42,10.67c-12.45,0-17.19-5.93-17.98-8.5c-0.79-2.57-2.77-1.38-4.15,0 c-1.38,1.38-4.15,2.37,0.99,7.31c5.14,4.94,16.4,5.73,36.75,4.56c20.35-1.17,24.11-8.31,30.03-2.19 c5.93,6.13-30.43,11.06-46.85,10.08c-16.42-0.99-39.45-3.36-45.42-14.42c-5.98-11.06,20.55-16.99,20.55-16.99 c-31.61,4.54-30.82,14.62-24.11,21.93c6.72,7.31,24.3,12.25,58.09,15.21c33.79,2.96,63.23-5.73,64.61-7.51 c1.38-1.78,4.35,2.17,6.12,5.1c1.78,2.92-14.23,12.88-64.41,12.29c-50.19-0.59-86.54-13.44-93.66-23.12 c-7.11-9.68,9.68-19.36,9.68-19.36c-25.88,10.67-18.57,23.12-1.78,32.4c16.79,9.29,79.23,16.2,118.95,15.61 c39.72-0.59,63.62-12.45,63.62-12.45c-2.77,13.83-62.04,18.57-62.04,18.57c2.77,1.58,0.79,3.75,0.79,3.75s1.78,0,3.36,0 c1.58,0,7.31,1.38,5.33,4.15c-1.98,2.77,8.89,9.68,13.63,14.23c4.74,4.54,7.9,10.87,12.84,13.04 c4.94,2.17,8.89,4.74,13.83,9.09c4.94,4.35,13.24,12.45,13.44,16.2c0.2,3.75-0.59,4.54,7.31,8.1c7.9,3.56,9.48,5.73,8.3,8.1 c-1.19,2.37-0.79,4.15,3.75,7.71c4.54,3.56,12.65,5.33,11.26,8.69c-1.38,3.36,7.71,13.63,9.09,15.41 c1.38,1.78,1.58,5.33-1.98,5.93c-3.56,0.59-1.98,3.56,4.94,12.65c6.92,9.09,16.99,35.17,22.92,54.34 c5.93,19.17,31.42,29.44,33.99,31.02c2.57,1.58-1.78,4.15-3.95,10.87c-2.17,6.72-20.75,0.2-22.13,4.15 c-1.38,3.95,34.18,30.43,41.89,31.22c7.71,0.79,39.12-20.55,40.9-22.92c1.78-2.37-7.31-4.15-11.86-5.73 c-4.54-1.58-6.92-2.57-6.72-5.93s-1.19-4.74-3.95-8.1c-2.77-3.36,0.2-5.14,9.88-12.25s14.82-19.56,16.99-30.82 c2.17-11.26-2.96-14.82-10.27-19.17c-7.31-4.35-3.75-8.1,1.98-14.03c5.73-5.93,4.94-10.08,2.96-14.23 c-1.98-4.15-0.99-5.34,1.58-10.67c2.57-5.33-1.58-6.32-0.59-13.04c0.99-6.72,7.71-9.48,5.34-21.54 c-2.37-12.05,1.58-13.83,4.74-18.57c3.16-4.74-4.74-7.9-4.94-15.02c-0.2-7.11,6.92-5.14,24.11-3.95 c17.19,1.19,75.28,3.56,80.42,6.72c5.14,3.16,2.77,7.51-7.71,8.3c-10.47,0.79-48.61,6.13-52.76,7.71 c-4.15,1.58,8.89,5.53,35.17,7.51c26.28,1.98,73.5,2.57,79.43,3.95c5.93,1.38,0.79,5.14,0.79,5.14 c4.15,1.19,16.99-0.4,25.49-3.75s7.71-7.9,3.75-10.08c-3.95-2.17-5.33-4.54-0.79-6.72c4.54-2.17,27.46-2.77,32.01-5.33 C1012.29,631.29,1001.62,630.3,980.09,626.95z M707.42,734.83c-2.17-0.2-13.44-24.7-28.65-46.83c0,0,28.26,22.33,28.65,23.71 C707.81,713.09,709.59,735.03,707.42,734.83z M718.12,603.43c-8.93,2.96-34.62,4.54-47.26,6.13 c-12.65,1.58-19.56,3.56-14.03,5.53c5.53,1.98,31.42,6.92,41.49,6.72c0,0,0.99,4.74-0.4,7.31c-1.38,2.57,0.79,9.09,2.77,12.25 c1.98,3.16,3.95,15.02,4.54,25.49c0.59,10.47,3.56,19.36,1.78,21.54c-1.78,2.17-2.17,2.57-0.99,5.14s0.4,7.51,0.4,7.51 S692,687.6,687.06,683.26c-4.94-4.35-4.94-5.73-6.12-9.88c-1.19-4.15-6.52-8.3-14.42-12.05c-7.9-3.75-9.09-8.1-8.3-12.05 c0.79-3.95,0.66-4.94-4.02-6.82c-4.68-1.88-8.23-1.88-11.59-5.24c-3.36-3.36-55.13-49.99-54.73-53.35c0,0,65.8,8.3,94.05,9.29 C710.18,594.15,727.05,600.47,718.12,603.43z M756.81,626.55c-4.15,2.17-3.16,5.73-1.58,11.66 c1.58,5.93-7.71,10.08-6.92,17.78c0.79,7.71-1.98,9.68-1.98,9.68s0,0-1.19,1.38c-1.19,1.38-0.99,9.48-3.16,9.29 c-2.17-0.2-2.57-7.71-2.57-7.71c-0.79-5.14-4.94-19.36-5.93-24.5c-0.99-5.14,1.78-10.27-3.56-13.83 c-5.33-3.56-5.73-6.32-4.35-7.11s15.02-0.59,19.17-0.59c4.15,0,5.14-1.38,2.77-3.16c-2.37-1.78-0.79-3.36,3.75-4.35 c4.54-0.99,12.84-1.19,14.82,2.57C768.08,621.41,760.96,624.38,756.81,626.55z"></path> </g> <linearGradient id="SVGID_00000163060474068936281780000003849354151434055558_" gradientUnits="userSpaceOnUse" x1="538.1316" y1="393.335" x2="538.1316" y2="895.0234"> <stop offset="0" style="stop-color:#FFFFFF"></stop> <stop offset="1" style="stop-color:#FFFFFF;stop-opacity:0"></stop> </linearGradient> <path style="fill:url(#SVGID_00000163060474068936281780000003849354151434055558_);" d="M516.84,584.86 c0,0,6.89,2.74,8.08,5.56s8.3,3.19,9.93,2.3c1.63-0.89,4.3-1.11,8.37-0.89c4.08,0.22,21.12-1.63,19.26-4 c-1.85-2.37-10-5.04-23.27-7.11s-22.45-2.96-23.41-1.78c-0.96,1.19-0.44,2.37-1.56,2.74 C513.14,582.04,513.29,584.19,516.84,584.86z"></path> </g> <g> <path class="st0" d="M510.22,423.43c0,0,33.99,15.81,80.62,17.39l13.04,5.93l-26.08,22.13c0,0-33.99-1.58-44.65-12.25 C522.47,445.96,518.13,438.84,510.22,423.43z"></path> <path class="st0" d="M510.22,442.6c0,0,17.29,29.05,53.74,37.94c0,0-20.45,16.6-23.71,20.75 C540.26,501.28,515.76,469.86,510.22,442.6z"></path> <path class="st0" d="M957.56,468.88c-82.39,52.06-203.61,41.89-262.59,36.26c-58.98-5.63-114.7-19.56-115.29-20.45 c-0.59-0.89,15.12-13.04,16.3-13.93c1.19-0.89,104.92,15.71,105.81,16.6c0.89,0.89-2.96,10.67-2.96,10.67 c3.26-0.59,21.93,3.56,21.93,3.26s2.37-11.26,2.37-11.26c9.48,1.78,42.09,5.33,42.09,5.33v6.52l19.86,1.19v-6.52 c40.31,5.93,86.25-7.11,86.25-7.11c-35.57,0.89-85.65-3.26-85.65-3.26c0.59-6.82,0.3-19.86,0.3-19.86 c6.52-3.56,5.63-13.34,4.04-16.3c-1.59-2.96,0.11-11.26,0-19.26c-0.11-8-10.56-35.57-10.56-35.57c5.63,0.3,6.52-1.78,6.52-1.78 c-6.52-10.08-11.86-36.16-11.86-36.16c14.82-6.52,16.6-14.82,15.71-24.6c-0.89-9.78-7.71-29.34-12.74-34.97 c-5.04-5.63-18.67-13.34-18.67-13.34c7.11-7.11,9.78-17.19,10.08-20.15c0.3-2.96,1.48-5.04,3.56-4.45 c2.07,0.59,9.48,1.19,10.67-1.48c1.19-2.67-21.64-20.15-24.9-22.52c-3.26-2.37-8.89-5.04-16.3,0 c-7.41,5.04-25.78,24.01-25.78,24.01s2.96,1.48,7.11,2.07c4.15,0.59,4.74,0.59,7.41,8c2.67,7.41,7.11,6.22-10.08,16.3 c-17.19,10.08-18.08,16.6-24.3,28.75c-6.22,12.15-26.97,55.13-26.97,55.13s5.04,0.59,5.34,1.48c0.3,0.89-2.07,9.78-4.74,15.12 c-2.67,5.33-2.37,14.23-2.37,14.23c-26.97,19.86-155.3,129.22-155.3,129.22l13.34,3.85l24.01-23.12 c0.59,2.07,12.15,12.15,27.27,17.78c15.12,5.63,48.9,15.12,101.07,21.93c52.16,6.82,138.71,16.89,175.16,13.93 c36.45-2.96,59.28-24.6,78.24-43.27c18.97-18.67,36.75-35.86,37.64-38.53C969.42,479.94,957.56,468.88,957.56,468.88z M730.53,467.94c2.67-1.78,5.93-8.15,8.15-17.63c2.22-9.48,9.19-30.08,9.19-30.08s4.45,11.26,6.22,17.49 c1.78,6.22,3.56,8.74,2.67,16.45c-0.89,7.71,4.15,12,5.93,15.41c1.78,3.41,1.19,14.08,1.19,14.08 c-14.23-0.74-38.23-4.45-38.23-4.45C725.2,473.27,727.87,469.71,730.53,467.94z M686.08,374.72 c3.56-3.26,6.22-6.37,10.37-14.08c4.15-7.71,13.49-25.49,14.67-25.34v33.05l-27.71,18.97 C683.41,387.32,682.52,377.99,686.08,374.72z M673.63,406.88c4.3-0.3,5.78-1.04,8-4.89c2.22-3.85,4.89-8.45,8.74-10.97 c3.85-2.52,19.56-14.82,19.56-14.82s0,11.26-4.89,19.56c0,0,0.74,2.07,6.08,1.19c0,0-1.04,30.38-2.67,42.09 c-1.63,11.71-4.15,17.19-5.63,21.34c-1.48,4.15-2.07,9.63,0.59,13.78c0,0-70.54-13.49-84.47-21.78 C618.95,452.38,669.33,407.18,673.63,406.88z"></path> </g> </g> <polygon class="st50" points="989.71,701.23 872.6,789.06 955.72,752.76 "></polygon> <polygon class="st50" points="794.17,823.32 827.48,808.77 718.04,821.44 "></polygon> <polygon class="st50" points="489.51,739.74 518.73,774.42 643.76,819.61 660.4,820.02 513.64,758.45 "></polygon> <polygon class="st50" points="675.52,826.36 718.04,821.44 660.4,820.02 "></polygon> <polygon class="st50" points="849.76,806.19 872.6,789.06 827.48,808.77 "></polygon> <path class="st0" d="M607.65,649.39c82.53,18.98,103.99,43.33,161.76,58.18c57.77,14.85,161.76,17.74,256.67-61.48l-36.37,55.14 l66.72-50.04l-12.83-40.33c-109.68,90.82-200.39,77.33-266.5,65.49c-66.11-11.84-129.68-54.2-219.43-54.55 c-89.75-0.35-159.72,46.97-159.72,46.97l91.56,70.98l-56.82-67.45C432.69,672.29,525.12,630.41,607.65,649.39z"></path> <path class="st50" d="M1026.08,646.09c-94.91,79.23-198.9,76.34-256.67,61.48c-57.77-14.86-79.23-39.2-161.76-58.18 c-82.53-18.98-174.96,22.9-174.96,22.9l56.82,67.45l24.13,18.7l146.76,61.57l57.64,1.42l109.44-12.67l45.13-19.71l117.11-87.83 L1026.08,646.09z M626.43,732.54c-42.09-17.33-77.17-20.63-125.03-0.52l-26.15-21.51c0,0,55.92-32.57,125.96-15.94 c73.66,17.49,78.45,39.92,137.57,52.3c80.98,16.96,122.25,1.86,153.2-6.5c0,0-49.43,26.46-122.97,28.73 C710.61,770.91,668.52,749.87,626.43,732.54z"></path> <path class="st0" d="M738.77,746.88c-59.11-12.38-63.91-34.82-137.57-52.3c-70.04-16.63-125.96,15.94-125.96,15.94l26.15,21.51 c47.87-20.12,82.94-16.82,125.03,0.52c42.09,17.33,84.18,38.38,142.57,36.57c73.53-2.27,122.97-28.73,122.97-28.73 C861.02,748.73,819.75,763.84,738.77,746.88z"></path> <g> <path class="st0" d="M1114.79,389.14c-0.75-4.74-1.56-9.47-2.45-14.15c0-0.14-0.03-0.31-0.08-0.47 c-0.92-4.79-1.92-9.55-3.01-14.26c0-0.06,0-0.11-0.03-0.14c-1.11-4.74-2.28-9.41-3.54-14.07c-1.31-4.85-2.7-9.67-4.21-14.43 c-1.98-6.32-4.09-12.53-6.35-18.72c0-0.06-0.03-0.11-0.08-0.19c-14.37-38.88-34.71-74.9-59.89-106.9 c-30.64-38.97-68.49-72.03-111.55-97.13C865.36,74.67,797.6,55.17,725.26,55.17c-217.65,0-394.08,176.43-394.08,394.08 c0,81.28,24.59,156.79,66.77,219.52c3.62,5.4,7.35,10.7,11.23,15.88c11.36,15.24,23.82,29.61,37.24,43.03 c7.99,8.05,16.38,15.77,25.1,23.09c64.79,54.57,147.43,88.66,237.9,92.25c5.26,0.2,10.53,0.31,15.85,0.31 c11.75,0,23.37-0.5,34.85-1.53c25.18-2.2,49.69-6.77,73.28-13.51c1.09-0.28,2.14-0.61,3.23-0.95 c122.61-36.04,220.41-130.11,261.6-250.46c2.76-8.02,5.24-16.18,7.46-24.43c1.25-4.65,2.42-9.33,3.54-14.07 c0.03-0.03,0.03-0.08,0.03-0.14c1.06-4.62,2.03-9.28,2.95-13.98v-0.03c0.06-0.25,0.11-0.5,0.14-0.72 c0.36-1.87,0.7-3.73,1.03-5.63c0.03-0.03,0.03-0.06,0.03-0.08c0.47-2.79,0.95-5.63,1.39-8.44c2.98-19.61,4.54-39.66,4.54-60.11 C1119.33,428.8,1117.78,408.75,1114.79,389.14z M707.01,92.75c3.01-0.14,6.02-0.25,9.02-0.33c2.87-0.08,5.74-0.11,8.61-0.11 c6.24,0,12.45,0.17,18.61,0.47c2.95,0.14,5.9,0.31,8.86,0.56c18.8,1.36,37.18,4.21,55.07,8.41 c30.42,7.16,59.33,18.19,86.18,32.56c97.15,51.95,167.46,147.54,184.73,260.6c0,0.08,0.03,0.14,0.06,0.22 c2.67,17.66,4.07,35.71,4.07,54.12c0,58.16-13.93,113.09-38.61,161.61c-0.06,0.11-0.11,0.22-0.14,0.31 c-7.16,14.01-15.18,27.46-24.04,40.3c0,0,0,0.03-0.03,0.03c-0.22,0.36-0.45,0.7-0.7,1.06c-1.23,1.75-2.48,3.51-3.73,5.24 c0,0.03-0.03,0.03-0.03,0.03c-35.93,49.86-84.42,90.05-140.86,115.96c-16.32,7.52-33.31,13.82-50.86,18.83 c-2.17,0.59-4.32,1.2-6.52,1.75c-20.83,5.52-42.39,9.19-64.54,10.81c-0.08,0-0.17,0-0.25,0.03c-1.75,0.14-3.51,0.25-5.29,0.36 c-2.7,0.17-5.43,0.31-8.16,0.39c-4.57,0.17-9.19,0.25-13.82,0.25c-2.87,0-5.74-0.03-8.61-0.11c-3.01-0.08-6.02-0.19-9-0.33 c-3.01-0.14-5.96-0.33-8.94-0.56c-72.42-5.46-138.82-32.51-192.75-74.76c-0.03,0-0.03,0-0.03,0c-0.56-0.45-1.11-0.86-1.64-1.31 c-8.22-6.49-16.13-13.34-23.7-20.53c-0.14-0.11-0.25-0.22-0.36-0.36c-13.12-12.45-25.32-25.9-36.43-40.22 c-0.08-0.08-0.14-0.14-0.2-0.22c-4.35-5.6-8.52-11.34-12.51-17.19c-0.08-0.08-0.14-0.17-0.19-0.28 c-39.11-57.27-61.97-126.48-61.97-201.08c0-190.74,149.63-346.59,337.95-356.47C706.51,92.75,706.76,92.75,707.01,92.75z"></path> </g> </g> </g> </g> </svg>