<svg xmlns="http://www.w3.org/2000/svg" xmlns:xlink="http://www.w3.org/1999/xlink" id="Layer_1" x="0px" y="0px" viewBox="0 0 296 296" style="enable-background:new 0 0 296 296;" xml:space="preserve"> <style type="text/css"> .st0{fill:#FFFFFF;} .st1{fill:#78993D;} .st2{fill:#246923;} .st3{fill:#FFC901;} .st4{fill:#66CC00;} .st5{fill:url(#SVGID_1_);} .st6{fill:url(#SVGID_00000107559846040979110240000009016565252282887089_);} .st7{fill:url(#SVGID_00000183942062934098658480000011272643730808384644_);} .st8{fill:url(#SVGID_00000021839667623724022250000008607809732769401496_);} .st9{fill:url(#SVGID_00000098921163171056305000000001775989062842303896_);} .st10{fill:none;} .st11{fill:url(#SVGID_00000011711217800018729500000002825072097014951585_);} .st12{fill:url(#SVGID_00000080193088364834457520000010958009226113902481_);} .st13{fill:url(#SVGID_00000099639595370935287950000015690190815956555696_);} .st14{fill:url(#SVGID_00000088814330852574358400000008336521355996881048_);} .st15{fill:url(#SVGID_00000057111909704907216310000008085299353407287962_);} .st16{fill:url(#SVGID_00000015347621730672653530000016164229401409387676_);} .st17{fill:url(#SVGID_00000122001363325040970090000018027943405537357719_);} .st18{fill:#58595B;} .st19{fill:url(#SVGID_00000119800498692440279380000013279133751291863689_);} .st20{fill:url(#SVGID_00000012447796740184896870000007669369611165257115_);} .st21{fill:url(#SVGID_00000137829331028487105800000005818604672924723846_);} .st22{fill:url(#SVGID_00000034807058442850203420000005308705615218555011_);} .st23{fill:url(#SVGID_00000051380827979032497960000014611332675901545631_);} .st24{fill:url(#SVGID_00000155115805481475341690000016351067040161569190_);} .st25{fill:url(#SVGID_00000124862240404007087060000006131918838307451014_);} .st26{fill:url(#SVGID_00000044147953928339060050000007139471009950385039_);} .st27{fill:url(#SVGID_00000136402626716633107180000011358627255753987759_);} .st28{fill:url(#SVGID_00000136380778023481847400000007143833390906005645_);} .st29{fill:url(#SVGID_00000172400699647622683960000007139610962164756130_);} .st30{fill:url(#SVGID_00000072977953952368189950000015358482983321473465_);} .st31{fill:none;stroke:#000000;stroke-width:2;stroke-miterlimit:10;} .st32{fill:#FFFFFF;stroke:#231F20;stroke-width:2;stroke-miterlimit:10;} .st33{fill:#336633;} .st34{fill:url(#SVGID_00000146468232382154450100000011909338486099172737_);} .st35{fill:url(#SVGID_00000111164907354433496990000016152321991044682896_);} .st36{fill:url(#SVGID_00000056410922474782685840000018287167545150575746_);} .st37{fill:url(#SVGID_00000097496083873768878090000009547493622593820071_);} .st38{fill:url(#SVGID_00000111188223594441320520000011478346682634148256_);} .st39{fill:url(#SVGID_00000062193742299471301980000006249707264834018957_);} .st40{fill:url(#SVGID_00000132071944774802599250000007002331377865175712_);} .st41{fill:url(#SVGID_00000097498682740012300730000006741761935784939183_);} .st42{fill:url(#SVGID_00000131332167032721840740000004918077236889492121_);} .st43{fill:url(#SVGID_00000137831732492714076850000012543313894811660477_);} .st44{fill:url(#SVGID_00000134217856899695803490000012537411650112551303_);} .st45{fill:url(#SVGID_00000111892623419310734590000005792622047769557123_);} .st46{fill:url(#SVGID_00000105399346851545057760000000586357950067333765_);} .st47{fill:url(#SVGID_00000137823163078155391940000015761494440280662937_);} .st48{fill:url(#SVGID_00000010269056769988584430000002328339953692462749_);} .st49{fill:url(#SVGID_00000128486495533443250500000006834076183824033447_);} .st50{fill:#231F20;} .st51{fill:url(#SVGID_00000117670233199222443960000010335511074784714906_);} .st52{fill:url(#SVGID_00000123422283104115754830000003474220804865869474_);} .st53{fill:url(#SVGID_00000177448182958033967030000000552609770005557900_);} .st54{fill:url(#SVGID_00000177469723853779288130000005294780805426356898_);} .st55{fill:url(#SVGID_00000049918016316458370970000015950710567420306586_);} .st56{fill:url(#SVGID_00000183224930302995700270000005132847451320244866_);} .st57{fill:url(#SVGID_00000021078724307399749910000003273703411685671324_);} .st58{fill:url(#SVGID_00000119117034781252545130000003322229434235404931_);} .st59{fill:url(#SVGID_00000103251916159519015890000015660550173394199725_);} .st60{fill:url(#SVGID_00000116210020760018968740000012710097764562619300_);} .st61{fill:url(#SVGID_00000086684628173799945280000000540401965448952218_);} .st62{fill:url(#SVGID_00000038394311013685692600000011103072051926031005_);} .st63{fill:url(#SVGID_00000019645438986266249630000000711712325691705023_);} .st64{fill:url(#SVGID_00000083090826907321630410000005353296153362921627_);} .st65{fill:url(#SVGID_00000089556236825578019450000002824555249487189382_);} .st66{fill:url(#SVGID_00000039132089970468315630000011946438050593757613_);} .st67{fill:url(#SVGID_00000091707041020757920650000017698248442414998917_);} .st68{fill:url(#SVGID_00000039832663463475875140000012259279746172834213_);} .st69{fill:url(#SVGID_00000083787113189956083090000012975304176517055647_);} .st70{fill:url(#SVGID_00000168814567832868932680000004172378817058680471_);} .st71{fill:url(#SVGID_00000078730208864193803850000004326813134421326737_);} .st72{fill:url(#SVGID_00000006705817600039815430000006241810652952064389_);} .st73{fill:url(#SVGID_00000058577005113279335590000011820635552151743650_);} .st74{fill:url(#SVGID_00000113353013436562325740000017063567494418110097_);} .st75{fill:url(#SVGID_00000079466628072294199460000000734779557908350373_);} .st76{fill:url(#SVGID_00000031917885473331629090000010674861005665675442_);} .st77{fill:url(#SVGID_00000162334733459834257220000009741950572384772995_);} .st78{fill:url(#SVGID_00000087373501309792639570000004135134059767808917_);} .st79{fill:url(#SVGID_00000104685592671042046460000004770326872487661729_);} .st80{fill:url(#SVGID_00000047746926658457697370000001366415656085637009_);} .st81{fill:url(#SVGID_00000039092058751597157300000014556785333629421472_);} .st82{fill:url(#SVGID_00000160170731555425472700000002328006535264088194_);} .st83{fill:url(#SVGID_00000142863973492818842620000003275305012207553928_);} .st84{fill:url(#SVGID_00000158750743899098066300000005843194614438187412_);} .st85{fill:url(#SVGID_00000002352348933102633540000000037076757378820235_);} .st86{fill:url(#SVGID_00000089574423440169109210000014210473510294047666_);} .st87{fill:url(#SVGID_00000113347708410944130280000003317278878126576277_);} .st88{fill:url(#SVGID_00000134945279221720984020000012907100014870268815_);} .st89{fill:url(#SVGID_00000026855328505317181930000000510463155419022012_);} .st90{fill:url(#SVGID_00000181089113098307707210000008767103164739945660_);} .st91{fill:url(#SVGID_00000037655474533089045600000012350570399186114487_);} .st92{fill:url(#SVGID_00000159435705920817112160000004785038830641604507_);} .st93{fill:url(#SVGID_00000153682012781991420890000016125387179355873206_);} .st94{fill:url(#SVGID_00000047024328660631141020000009990064672360570018_);} .st95{fill:url(#SVGID_00000170258846627513344690000016899053380068914562_);} .st96{fill:url(#SVGID_00000123438445102605234690000003019567808363591843_);} .st97{fill:url(#SVGID_00000113312817871826561770000000997988202860537235_);} .st98{fill:url(#SVGID_00000178173503200604760380000001383914340699193230_);} .st99{fill:url(#SVGID_00000155125686607490245810000004917551725514947256_);} .st100{fill:url(#SVGID_00000081646113502339448230000009590606716043325839_);} .st101{fill:url(#SVGID_00000115494846770957560210000005461563517414202037_);} .st102{fill:#78993D;stroke:#FFFFFF;stroke-width:10;stroke-linecap:round;stroke-linejoin:round;stroke-miterlimit:10;} .st103{fill:#246923;stroke:#FFFFFF;stroke-width:12;stroke-linecap:round;stroke-linejoin:round;stroke-miterlimit:10;} .st104{fill:#FFC901;stroke:#FFFFFF;stroke-width:12;stroke-linecap:round;stroke-linejoin:round;stroke-miterlimit:10;} .st105{fill:#66CC00;stroke:#FFFFFF;stroke-width:12;stroke-linecap:round;stroke-linejoin:round;stroke-miterlimit:10;} </style> <g> <path class="st0" d="M276,10c5.51,0,10,4.49,10,10v256c0,5.51-4.49,10-10,10H20c-5.51,0-10-4.49-10-10V20c0-5.51,4.49-10,10-10H276 M276,0H20C9,0,0,9,0,20v256c0,11,9,20,20,20h256c11,0,20-9,20-20V20C296,9,287,0,276,0L276,0z"></path> </g> <g> <path class="st0" d="M204.8,139c23.5,0,42.5-19,42.5-42.5S228.3,54,204.8,54s-42.5,19-42.5,42.5S181.3,139,204.8,139z M204.8,78.4 c10,0,18.1,8.1,18.1,18.1s-8.1,18.1-18.1,18.1s-18.1-8.1-18.1-18.1S194.8,78.4,204.8,78.4z"></path> <path class="st0" d="M204.8,157.4c-23.5,0-42.5,19-42.5,42.5s19,42.5,42.5,42.5s42.5-19,42.5-42.5S228.3,157.4,204.8,157.4z M204.8,218c-10,0-18.1-8.1-18.1-18.1s8.1-18.1,18.1-18.1s18.1,8.1,18.1,18.1C222.9,209.9,214.8,218,204.8,218z"></path> <path class="st0" d="M118.2,157.4c-7.2,0-13.8,2.4-19.1,6.4c-5.3-4-12-6.4-19.1-6.4c-17.6,0-31.9,14.3-31.9,31.9v53.2h24.4V189 c0-4,3.2-7.2,7.2-7.2s7.2,3.2,7.2,7.2v53.4h24.4V189c0-4,3.2-7.2,7.2-7.2s7.2,3.2,7.2,7.2v53.4H150v-53.2 C150,171.7,135.8,157.4,118.2,157.4z"></path> <path class="st0" d="M118.2,54c-7.2,0-13.8,2.4-19.1,6.4c-5.3-4-12-6.4-19.1-6.4c-17.7,0-32,14.3-32,31.9V139h24.4V85.6 c0-4,3.2-7.2,7.2-7.2s7.2,3.2,7.2,7.2V139h24.4V85.6c0-4,3.2-7.2,7.2-7.2s7.2,3.2,7.2,7.2V139H150V85.9C150,68.3,135.8,54,118.2,54 z"></path> </g> </svg>