<?xml version="1.0" encoding="UTF-8"?> <svg xmlns="http://www.w3.org/2000/svg" xmlns:xlink="http://www.w3.org/1999/xlink" version="1.1" id="Layer_1" x="0px" y="0px" viewBox="0 0 1124.19 1018.47" style="enable-background:new 0 0 1124.19 1018.47;" xml:space="preserve"> <style type="text/css"> .st0{fill:#FFFFFF;} .st1{fill:#78993D;} .st2{fill:#246923;} .st3{fill:#FFC901;} .st4{fill:#66CC00;} .st5{fill:url(#SVGID_1_);} .st6{fill:url(#SVGID_00000028302793305318944140000011335408435908107168_);} .st7{fill:url(#SVGID_00000089541584776351451100000014444044723170130050_);} .st8{fill:url(#SVGID_00000001633571814328211300000009949794880075121318_);} .st9{fill:url(#SVGID_00000169547363210710250020000012251358144442628784_);} .st10{fill:none;} .st11{fill:url(#SVGID_00000069373807484148264420000007650839577118343599_);} .st12{fill:url(#SVGID_00000045621110722699631080000002813983663220027819_);} .st13{fill:url(#SVGID_00000158020685480944505350000012990642254120149652_);} .st14{fill:url(#SVGID_00000002383005064232419090000000395572189557919131_);} .st15{fill:url(#SVGID_00000115487242994545553920000003588501556940981386_);} .st16{fill:url(#SVGID_00000131360461623833332080000008327398419410820261_);} .st17{fill:url(#SVGID_00000065765589114279804870000012188958849205141666_);} .st18{fill:#58595B;} .st19{fill:url(#SVGID_00000101069133905690330050000003683363357405161132_);} .st20{fill:url(#SVGID_00000012470100781334561970000013809643971090741928_);} .st21{fill:url(#SVGID_00000126298311128284230140000017052433500623577993_);} .st22{fill:url(#SVGID_00000069384941148570098110000010740748727993138316_);} .st23{fill:url(#SVGID_00000072241178227962979030000001707715372571897241_);} .st24{fill:url(#SVGID_00000052072796478856062140000011505370067675232143_);} .st25{fill:url(#SVGID_00000132793747318328172410000017516809461565785244_);} .st26{fill:url(#SVGID_00000009584452707274734460000002262964159307437449_);} .st27{fill:url(#SVGID_00000179631734670076400440000015690563590272415934_);} .st28{fill:url(#SVGID_00000096023253950141032110000014667993871015561097_);} .st29{fill:url(#SVGID_00000165221695592270798720000014973687485898117297_);} .st30{fill:url(#SVGID_00000103259523535132225030000008892855495355633793_);} .st31{fill:none;stroke:#000000;stroke-width:2;stroke-miterlimit:10;} .st32{fill:#FFFFFF;stroke:#231F20;stroke-width:2;stroke-miterlimit:10;} .st33{fill:url(#SVGID_00000033346606483091173520000010681024132778474901_);} .st34{fill:url(#SVGID_00000146487125111407681610000013199766427425247917_);} .st35{fill:url(#SVGID_00000134947244781933722930000013874030660391679881_);} .st36{fill:url(#SVGID_00000179627765930258135010000016889464758573861772_);} .st37{fill:url(#SVGID_00000142878194849180664640000002778909470072163253_);} .st38{fill:url(#SVGID_00000182512334616770919630000007550564045627868829_);} .st39{fill:url(#SVGID_00000117648689173605381740000012327174777100554427_);} .st40{fill:url(#SVGID_00000112617034812697894900000005374994685322592914_);} .st41{fill:url(#SVGID_00000084524487870165705700000010902023628084394895_);} .st42{fill:url(#SVGID_00000042013853827916575800000003121076048808617398_);} .st43{fill:url(#SVGID_00000116233379811800366450000004473792324083208613_);} .st44{fill:url(#SVGID_00000023255356635010247920000005330148625294748595_);} .st45{fill:url(#SVGID_00000093880370169333291130000003032445461778217899_);} .st46{fill:url(#SVGID_00000057122063092346267770000008408709085942189744_);} .st47{fill:url(#SVGID_00000152224032145082433840000001873701145614391696_);} .st48{fill:url(#SVGID_00000135650701902106993630000000505761451483396227_);} .st49{fill:#231F20;} .st50{fill:url(#SVGID_00000010269246096221030230000017818619324684065705_);} .st51{fill:url(#SVGID_00000142175692635495675120000001343570643545806253_);} .st52{fill:url(#SVGID_00000164495372051746168640000016200942194151263649_);} .st53{fill:url(#SVGID_00000072267991484925139740000002205682618136601784_);} .st54{fill:url(#SVGID_00000024691011901042390770000014867465290922514612_);} .st55{fill:url(#SVGID_00000075125021576949589890000016258746984953950116_);} .st56{fill:url(#SVGID_00000116233664165078710640000001340842497805617577_);} .st57{fill:url(#SVGID_00000036970377702546681680000006932977990415797144_);} .st58{fill:url(#SVGID_00000018227767753032865160000002635473149312492715_);} .st59{fill:url(#SVGID_00000036973953940057081800000008396763963848561030_);} .st60{fill:url(#SVGID_00000116199577810100477900000001141981032614520196_);} .st61{fill:url(#SVGID_00000067943465748023951040000007113353761198507399_);} .st62{fill:url(#SVGID_00000075146815604183897660000015134093800774403244_);} .st63{fill:url(#SVGID_00000144307380874496543830000014709617421136827834_);} .st64{fill:url(#SVGID_00000042731147511873815690000009399509260195573633_);} .st65{fill:url(#SVGID_00000155861505187004834680000014857818963087698363_);} .st66{fill:url(#SVGID_00000088828035116025846750000000772334390291133345_);} .st67{fill:url(#SVGID_00000010276009825140392780000002529693078543145633_);} .st68{fill:url(#SVGID_00000087408686799129201840000013103934427064990882_);} .st69{fill:url(#SVGID_00000012442622812852052320000015554300686687930263_);} .st70{fill:url(#SVGID_00000065793707197918437420000014153765479701878944_);} .st71{fill:url(#SVGID_00000007407194166941556420000010576679425912291735_);} .st72{fill:url(#SVGID_00000083770726830128460490000015350002970257927613_);} .st73{fill:url(#SVGID_00000051365317790021954610000015934040702837391507_);} .st74{fill:url(#SVGID_00000090984148755669947390000007025560703347370159_);} .st75{fill:url(#SVGID_00000026848716198900330400000017493617127415441819_);} .st76{fill:url(#SVGID_00000145056446090975279050000010278429827282787727_);} .st77{fill:url(#SVGID_00000152223340217735123610000006137801814718670768_);} .st78{fill:url(#SVGID_00000132069767143953025310000002902886202387136181_);} .st79{fill:url(#SVGID_00000074434470909648565110000013216393564335700889_);} .st80{fill:url(#SVGID_00000140701834512018096550000008610333729031460486_);} .st81{fill:url(#SVGID_00000092436507003679967760000017176969997751517586_);} .st82{fill:url(#SVGID_00000086657101121650817900000005929316073829364917_);} .st83{fill:url(#SVGID_00000077321469501597028270000004689851464377665940_);} .st84{fill:url(#SVGID_00000122707084441989612060000003245437160385809070_);} .st85{fill:url(#SVGID_00000070815724468237593310000005895191153198037666_);} .st86{fill:url(#SVGID_00000000915331104241063180000003439754511272873659_);} .st87{fill:url(#SVGID_00000171697740562854382910000015661785393686274179_);} .st88{fill:url(#SVGID_00000005978386467461267080000002072954493769626533_);} .st89{fill:url(#SVGID_00000129192580493768915650000013061065803549237898_);} .st90{fill:url(#SVGID_00000039853228290892376260000014156553303512685990_);} .st91{fill:url(#SVGID_00000046336184280700224910000009690218410433668780_);} .st92{fill:url(#SVGID_00000037670327795495638420000004919053061804214438_);} .st93{fill:url(#SVGID_00000010313012082785596790000015343781494542944435_);} .st94{fill:url(#SVGID_00000165201230587924437060000011132656128586353329_);} .st95{fill:url(#SVGID_00000175313473986102810660000011284177881380769968_);} .st96{fill:#78993D;stroke:#FFFFFF;stroke-width:10;stroke-linecap:round;stroke-linejoin:round;stroke-miterlimit:10;} .st97{fill:#246923;stroke:#FFFFFF;stroke-width:12;stroke-linecap:round;stroke-linejoin:round;stroke-miterlimit:10;} .st98{fill:#FFC901;stroke:#FFFFFF;stroke-width:12;stroke-linecap:round;stroke-linejoin:round;stroke-miterlimit:10;} .st99{fill:#66CC00;stroke:#FFFFFF;stroke-width:12;stroke-linecap:round;stroke-linejoin:round;stroke-miterlimit:10;} </style> <g> <g> <path class="st18" d="M188.98,987.14l-15.64-51.32l-0.08-0.3c0-0.51,0.28-0.76,0.83-0.76h9.57c0.56,0,0.91,0.25,1.06,0.76 l10.1,37.05c0.05,0.15,0.13,0.23,0.23,0.23s0.18-0.08,0.23-0.23l9.95-37.05c0.15-0.51,0.5-0.76,1.06-0.76h9.34 c0.3,0,0.53,0.1,0.68,0.3c0.15,0.2,0.18,0.46,0.08,0.76l-15.87,51.32c-0.15,0.51-0.48,0.76-0.99,0.76h-9.57 C189.46,987.9,189.13,987.64,188.98,987.14z"></path> <path class="st18" d="M232.48,929.44c0,0.41-0.25,0.61-0.76,0.61h-6.38c-0.46,0-0.81-0.2-1.06-0.61l-5.39-7.67 c-0.1-0.15-0.15-0.33-0.15-0.53c0-0.4,0.25-0.61,0.76-0.61h7.67c0.5,0,0.88,0.23,1.14,0.68l4.02,7.67 C232.42,929.19,232.48,929.34,232.48,929.44z M223.33,987.63c-0.18-0.18-0.27-0.39-0.27-0.65v-51.32c0-0.25,0.09-0.47,0.27-0.65 c0.18-0.18,0.39-0.27,0.65-0.27h8.88c0.25,0,0.47,0.09,0.65,0.27c0.18,0.18,0.27,0.39,0.27,0.65v51.32c0,0.25-0.09,0.47-0.27,0.65 c-0.18,0.18-0.39,0.27-0.65,0.27h-8.88C223.72,987.9,223.5,987.81,223.33,987.63z"></path> <path class="st18" d="M293.43,934.76h8.88c0.25,0,0.47,0.09,0.65,0.27c0.18,0.18,0.27,0.39,0.27,0.65v51.32 c0,0.25-0.09,0.47-0.27,0.65c-0.18,0.18-0.39,0.27-0.65,0.27h-8.88c-0.25,0-0.47-0.09-0.65-0.27c-0.18-0.18-0.27-0.39-0.27-0.65 v-33.48c0-0.2-0.05-0.3-0.15-0.3s-0.2,0.08-0.3,0.23l-8.05,12.6c-0.25,0.41-0.61,0.61-1.06,0.61h-4.48c-0.46,0-0.81-0.2-1.06-0.61 l-8.05-12.6c-0.1-0.15-0.2-0.21-0.3-0.19c-0.1,0.03-0.15,0.14-0.15,0.34v33.4c0,0.25-0.09,0.47-0.27,0.65 c-0.18,0.18-0.39,0.27-0.65,0.27h-8.88c-0.25,0-0.47-0.09-0.65-0.27c-0.18-0.18-0.27-0.39-0.27-0.65v-51.32 c0-0.25,0.09-0.47,0.27-0.65c0.18-0.18,0.39-0.27,0.65-0.27H268c0.46,0,0.81,0.2,1.06,0.61l11.39,17.69c0.15,0.3,0.3,0.3,0.46,0 l11.46-17.69C292.62,934.96,292.98,934.76,293.43,934.76z"></path> <path class="st18" d="M320.95,986.3c-3.01-1.62-5.35-3.88-7.02-6.79c-1.67-2.91-2.5-6.26-2.5-10.06V953.2 c0-3.74,0.83-7.06,2.5-9.94s4.01-5.12,7.02-6.72c3.01-1.59,6.49-2.39,10.44-2.39c4,0,7.5,0.8,10.51,2.39 c3.01,1.59,5.35,3.83,7.02,6.72c1.67,2.88,2.51,6.2,2.51,9.94v16.25c0,3.8-0.83,7.16-2.51,10.1c-1.67,2.94-4.01,5.2-7.02,6.79 c-3.01,1.59-6.52,2.39-10.51,2.39C327.44,988.73,323.96,987.92,320.95,986.3z M319.51,930.01c-0.13-0.23-0.09-0.49,0.11-0.8 l5.54-7.97c0.25-0.4,0.61-0.61,1.06-0.61h10.1c0.46,0,0.81,0.2,1.06,0.61l5.77,7.97c0.15,0.2,0.23,0.38,0.23,0.53 c0,0.41-0.28,0.61-0.83,0.61h-6.83c-0.46,0-0.81-0.2-1.06-0.61l-3.04-4.63c-0.15-0.3-0.3-0.3-0.46,0l-3.04,4.63 c-0.25,0.41-0.61,0.61-1.06,0.61h-6.83C319.88,930.35,319.64,930.24,319.51,930.01z M338.15,976.89c1.72-1.77,2.58-4.12,2.58-7.06 v-16.7c0-2.93-0.85-5.3-2.54-7.1c-1.7-1.8-3.96-2.7-6.79-2.7c-2.78,0-5.02,0.9-6.72,2.7c-1.7,1.8-2.54,4.16-2.54,7.1v16.7 c0,2.94,0.85,5.29,2.54,7.06c1.69,1.77,3.93,2.66,6.72,2.66S336.43,978.66,338.15,976.89z M327.37,1002.66 c-1.06-1.09-1.59-2.44-1.59-4.06c0-1.72,0.53-3.1,1.59-4.14c1.06-1.04,2.43-1.56,4.1-1.56s3.04,0.52,4.1,1.56 c1.06,1.04,1.59,2.42,1.59,4.14c0,1.62-0.54,2.97-1.63,4.06c-1.09,1.09-2.44,1.63-4.06,1.63 C329.8,1004.29,328.43,1003.75,327.37,1002.66z"></path> <path class="st18" d="M396.33,935.02c0.18,0.18,0.27,0.39,0.27,0.65v7.44c0,0.25-0.09,0.47-0.27,0.65 c-0.18,0.18-0.39,0.27-0.64,0.27H382.1c-0.25,0-0.38,0.13-0.38,0.38v42.59c0,0.25-0.09,0.47-0.27,0.65 c-0.18,0.18-0.39,0.27-0.65,0.27h-8.88c-0.25,0-0.47-0.09-0.65-0.27c-0.18-0.18-0.27-0.39-0.27-0.65V944.4 c0-0.25-0.13-0.38-0.38-0.38h-13.21c-0.25,0-0.47-0.09-0.64-0.27c-0.18-0.18-0.27-0.39-0.27-0.65v-7.44 c0-0.25,0.09-0.47,0.27-0.65c0.18-0.18,0.39-0.27,0.64-0.27h38.26C395.94,934.76,396.16,934.85,396.33,935.02z"></path> <path class="st18" d="M431.75,987.14l-15.64-51.32l-0.08-0.3c0-0.51,0.28-0.76,0.83-0.76h9.57c0.56,0,0.91,0.25,1.06,0.76 l10.1,37.05c0.05,0.15,0.13,0.23,0.23,0.23s0.18-0.08,0.23-0.23l9.95-37.05c0.15-0.51,0.5-0.76,1.06-0.76h9.34 c0.3,0,0.53,0.1,0.68,0.3c0.15,0.2,0.18,0.46,0.08,0.76l-15.87,51.32c-0.15,0.51-0.48,0.76-0.99,0.76h-9.57 C432.23,987.9,431.9,987.64,431.75,987.14z"></path> <path class="st18" d="M466.1,987.63c-0.18-0.18-0.27-0.39-0.27-0.65v-51.32c0-0.25,0.09-0.47,0.27-0.65 c0.18-0.18,0.39-0.27,0.65-0.27h8.88c0.25,0,0.47,0.09,0.65,0.27c0.18,0.18,0.27,0.39,0.27,0.65v51.32c0,0.25-0.09,0.47-0.27,0.65 c-0.18,0.18-0.39,0.27-0.65,0.27h-8.88C466.49,987.9,466.27,987.81,466.1,987.63z"></path> <path class="st18" d="M522.43,943.68c-0.18,0.18-0.39,0.27-0.65,0.27h-24.9c-0.25,0-0.38,0.13-0.38,0.38v11.77 c0,0.25,0.13,0.38,0.38,0.38h16.32c0.25,0,0.47,0.09,0.65,0.27c0.18,0.18,0.27,0.39,0.27,0.65v7.36c0,0.25-0.09,0.47-0.27,0.65 c-0.18,0.18-0.39,0.27-0.65,0.27h-16.32c-0.25,0-0.38,0.13-0.38,0.38v12.3c0,0.25,0.13,0.38,0.38,0.38h24.9 c0.25,0,0.47,0.09,0.65,0.27c0.18,0.18,0.27,0.39,0.27,0.65v7.36c0,0.25-0.09,0.47-0.27,0.65c-0.18,0.18-0.39,0.27-0.65,0.27 h-35.07c-0.25,0-0.47-0.09-0.65-0.27c-0.18-0.18-0.27-0.39-0.27-0.65v-51.32c0-0.25,0.09-0.47,0.27-0.65 c0.18-0.18,0.39-0.27,0.65-0.27h35.07c0.25,0,0.47,0.09,0.65,0.27c0.18,0.18,0.27,0.39,0.27,0.65v7.36 C522.69,943.29,522.6,943.5,522.43,943.68z M492.14,930.01c-0.13-0.23-0.09-0.49,0.11-0.8l5.54-7.97c0.25-0.4,0.61-0.61,1.06-0.61 h10.1c0.46,0,0.81,0.2,1.06,0.61l5.77,7.97c0.15,0.2,0.23,0.38,0.23,0.53c0,0.41-0.28,0.61-0.83,0.61h-6.83 c-0.46,0-0.81-0.2-1.06-0.61l-3.04-4.63c-0.15-0.3-0.3-0.3-0.46,0l-3.04,4.63c-0.25,0.41-0.61,0.61-1.06,0.61h-6.83 C492.5,930.35,492.26,930.24,492.14,930.01z M500.52,1002.66c-1.06-1.09-1.59-2.44-1.59-4.06c0-1.72,0.53-3.1,1.59-4.14 c1.06-1.04,2.43-1.56,4.1-1.56c1.67,0,3.04,0.52,4.1,1.56c1.06,1.04,1.59,2.42,1.59,4.14c0,1.62-0.54,2.97-1.63,4.06 c-1.09,1.09-2.44,1.63-4.06,1.63C502.95,1004.29,501.59,1003.75,500.52,1002.66z"></path> <path class="st18" d="M567.44,935.02c0.18,0.18,0.27,0.39,0.27,0.65v7.44c0,0.25-0.09,0.47-0.27,0.65 c-0.18,0.18-0.39,0.27-0.64,0.27h-13.59c-0.25,0-0.38,0.13-0.38,0.38v42.59c0,0.25-0.09,0.47-0.27,0.65 c-0.18,0.18-0.39,0.27-0.65,0.27h-8.88c-0.25,0-0.47-0.09-0.65-0.27c-0.18-0.18-0.27-0.39-0.27-0.65V944.4 c0-0.25-0.13-0.38-0.38-0.38h-13.21c-0.25,0-0.47-0.09-0.64-0.27c-0.18-0.18-0.27-0.39-0.27-0.65v-7.44 c0-0.25,0.09-0.47,0.27-0.65c0.18-0.18,0.39-0.27,0.64-0.27h38.26C567.05,934.76,567.27,934.85,567.44,935.02z"></path> <path class="st18" d="M620.51,935.02c0.18-0.18,0.39-0.27,0.65-0.27h8.88c0.25,0,0.47,0.09,0.65,0.27 c0.18,0.18,0.27,0.39,0.27,0.65v51.32c0,0.25-0.09,0.47-0.27,0.65c-0.18,0.18-0.39,0.27-0.65,0.27h-8.58 c-0.51,0-0.86-0.2-1.06-0.61l-19.66-32.49c-0.1-0.15-0.2-0.21-0.3-0.19c-0.1,0.03-0.15,0.14-0.15,0.34l0.15,32.04 c0,0.25-0.09,0.47-0.27,0.65c-0.18,0.18-0.39,0.27-0.65,0.27h-8.88c-0.25,0-0.47-0.09-0.65-0.27c-0.18-0.18-0.27-0.39-0.27-0.65 v-51.32c0-0.25,0.09-0.47,0.27-0.65c0.18-0.18,0.39-0.27,0.65-0.27h8.58c0.5,0,0.86,0.2,1.06,0.61l19.59,32.34 c0.1,0.15,0.2,0.22,0.3,0.19c0.1-0.02,0.15-0.14,0.15-0.34l-0.08-31.88C620.24,935.42,620.33,935.2,620.51,935.02z"></path> <path class="st18" d="M673,987.14l-2.28-7.44c-0.1-0.2-0.23-0.3-0.38-0.3h-18.67c-0.15,0-0.28,0.1-0.38,0.3l-2.2,7.44 c-0.15,0.51-0.48,0.76-0.99,0.76h-9.64c-0.3,0-0.53-0.09-0.68-0.27c-0.15-0.18-0.18-0.44-0.08-0.8l16.4-51.32 c0.15-0.51,0.48-0.76,0.99-0.76H667c0.5,0,0.83,0.25,0.99,0.76l16.4,51.32c0.05,0.1,0.08,0.23,0.08,0.38 c0,0.46-0.28,0.68-0.83,0.68h-9.64C673.48,987.9,673.15,987.64,673,987.14z M654.33,971.12h13.36c0.3,0,0.4-0.15,0.3-0.46 l-6.83-22.55c-0.05-0.2-0.13-0.29-0.23-0.27c-0.1,0.03-0.18,0.11-0.23,0.27l-6.68,22.55 C653.97,970.97,654.07,971.12,654.33,971.12z"></path> <path class="st18" d="M726.37,934.76h8.88c0.25,0,0.47,0.09,0.65,0.27c0.18,0.18,0.27,0.39,0.27,0.65v51.32 c0,0.25-0.09,0.47-0.27,0.65c-0.18,0.18-0.39,0.27-0.65,0.27h-8.88c-0.25,0-0.47-0.09-0.65-0.27c-0.18-0.18-0.27-0.39-0.27-0.65 v-33.48c0-0.2-0.05-0.3-0.15-0.3s-0.2,0.08-0.3,0.23l-8.05,12.6c-0.25,0.41-0.61,0.61-1.06,0.61h-4.48c-0.46,0-0.81-0.2-1.06-0.61 l-8.05-12.6c-0.1-0.15-0.2-0.21-0.3-0.19c-0.1,0.03-0.15,0.14-0.15,0.34v33.4c0,0.25-0.09,0.47-0.27,0.65 c-0.18,0.18-0.39,0.27-0.65,0.27h-8.88c-0.25,0-0.47-0.09-0.65-0.27c-0.18-0.18-0.27-0.39-0.27-0.65v-51.32 c0-0.25,0.09-0.47,0.27-0.65c0.18-0.18,0.39-0.27,0.65-0.27h8.88c0.46,0,0.81,0.2,1.06,0.61l11.39,17.69c0.15,0.3,0.3,0.3,0.46,0 l11.46-17.69C725.56,934.96,725.91,934.76,726.37,934.76z"></path> <path class="st18" d="M758.33,987.59c-0.15-0.2-0.13-0.46,0.08-0.76l14.73-25.28c0.1-0.15,0.1-0.3,0-0.46l-14.73-25.28l-0.15-0.46 c0-0.4,0.28-0.61,0.83-0.61h9.64c0.5,0,0.88,0.2,1.14,0.61l9.87,17.38c0.15,0.3,0.3,0.3,0.46,0l9.87-17.38 c0.25-0.4,0.63-0.61,1.14-0.61h9.57c0.35,0,0.61,0.1,0.76,0.3c0.15,0.2,0.13,0.46-0.08,0.76l-14.73,25.28 c-0.05,0.15-0.05,0.3,0,0.46l14.73,25.28l0.15,0.46c0,0.41-0.28,0.61-0.83,0.61h-9.57c-0.51,0-0.89-0.2-1.14-0.61l-9.87-17.31 c-0.15-0.3-0.3-0.3-0.46,0l-9.95,17.31c-0.25,0.41-0.63,0.61-1.14,0.61h-9.57C758.73,987.9,758.48,987.8,758.33,987.59z"></path> <path class="st18" d="M841.3,987.14l-2.28-7.44c-0.1-0.2-0.23-0.3-0.38-0.3h-18.67c-0.15,0-0.28,0.1-0.38,0.3l-2.2,7.44 c-0.15,0.51-0.48,0.76-0.99,0.76h-9.64c-0.3,0-0.53-0.09-0.68-0.27c-0.15-0.18-0.18-0.44-0.08-0.8l16.4-51.32 c0.15-0.51,0.48-0.76,0.99-0.76h11.92c0.5,0,0.83,0.25,0.99,0.76l16.4,51.32c0.05,0.1,0.08,0.23,0.08,0.38 c0,0.46-0.28,0.68-0.83,0.68h-9.64C841.78,987.9,841.45,987.64,841.3,987.14z M822.63,971.12h13.36c0.3,0,0.4-0.15,0.3-0.46 l-6.83-22.55c-0.05-0.2-0.13-0.29-0.23-0.27c-0.1,0.03-0.18,0.11-0.23,0.27l-6.68,22.55 C822.27,970.97,822.37,971.12,822.63,971.12z"></path> <path class="st18" d="M890.23,935.02c0.18-0.18,0.39-0.27,0.65-0.27h8.88c0.25,0,0.47,0.09,0.65,0.27 c0.18,0.18,0.27,0.39,0.27,0.65v51.32c0,0.25-0.09,0.47-0.27,0.65c-0.18,0.18-0.39,0.27-0.65,0.27h-8.58 c-0.51,0-0.86-0.2-1.06-0.61l-19.66-32.49c-0.1-0.15-0.2-0.21-0.3-0.19c-0.1,0.03-0.15,0.14-0.15,0.34l0.15,32.04 c0,0.25-0.09,0.47-0.27,0.65c-0.18,0.18-0.39,0.27-0.65,0.27h-8.88c-0.25,0-0.47-0.09-0.65-0.27c-0.18-0.18-0.27-0.39-0.27-0.65 v-51.32c0-0.25,0.09-0.47,0.27-0.65c0.18-0.18,0.39-0.27,0.65-0.27h8.58c0.5,0,0.86,0.2,1.06,0.61l19.59,32.34 c0.1,0.15,0.2,0.22,0.3,0.19c0.1-0.02,0.15-0.14,0.15-0.34l-0.08-31.88C889.96,935.42,890.05,935.2,890.23,935.02z"></path> <path class="st18" d="M938.43,935.02c0.18-0.18,0.39-0.27,0.65-0.27h8.88c0.25,0,0.47,0.09,0.65,0.27 c0.18,0.18,0.27,0.39,0.27,0.65v51.32c0,0.25-0.09,0.47-0.27,0.65c-0.18,0.18-0.39,0.27-0.65,0.27h-8.88 c-0.25,0-0.47-0.09-0.65-0.27c-0.18-0.18-0.27-0.39-0.27-0.65v-20.95c0-0.25-0.13-0.38-0.38-0.38h-16.78 c-0.25,0-0.38,0.13-0.38,0.38v20.95c0,0.25-0.09,0.47-0.27,0.65c-0.18,0.18-0.39,0.27-0.65,0.27h-8.88 c-0.25,0-0.47-0.09-0.65-0.27c-0.18-0.18-0.27-0.39-0.27-0.65v-51.32c0-0.25,0.09-0.47,0.27-0.65c0.18-0.18,0.39-0.27,0.65-0.27 h8.88c0.25,0,0.47,0.09,0.65,0.27c0.18,0.18,0.27,0.39,0.27,0.65v20.42c0,0.25,0.13,0.38,0.38,0.38h16.78 c0.25,0,0.38-0.13,0.38-0.38v-20.42C938.17,935.42,938.26,935.2,938.43,935.02z"></path> </g> <g> <path class="st2" d="M1005.39,730.23c0-12.2,0-24.4,0-36.59c-30.47,0.01-60.94,0.01-91.42,0.02v182.79c12.19,0,24.39,0,36.58,0 c-0.01-24.41-0.01-48.81-0.02-73.22c18.26,0.02,36.52,0.04,54.78,0.06c0-12.18,0-24.37,0-36.55c-18.24,0.03-36.48,0.06-54.72,0.09 c-0.01-12.21-0.03-24.41-0.04-36.62C968.83,730.22,987.11,730.22,1005.39,730.23z"></path> <path class="st2" d="M776.88,839.92c0-48.76,0-97.51,0-146.27c-12.19,0-24.37,0-36.56,0v182.79h24.93h12.33 c21.09,0,42.19,0,63.28,0c0-12.19,0-24.38,0-36.57C819.52,839.89,798.2,839.91,776.88,839.92z"></path> <g> <path class="st2" d="M877.41,709.28c-10.1,0-18.28-3.5-18.28-7.82v167.16c0,4.32,8.18,7.82,18.28,7.82s18.28-3.5,18.28-7.82 V701.47C895.69,705.78,887.51,709.28,877.41,709.28z"></path> <ellipse class="st3" cx="877.41" cy="701.47" rx="18.28" ry="7.82"></ellipse> </g> <path class="st4" d="M148.02,785.05L148.02,785.05l-56.63,0v0v27.23v9.32h40.88c-10.04,11.22-24.63,18.29-40.88,18.29 c-30.29,0-54.84-24.55-54.84-54.84c0-14.05,5.28-26.86,13.97-36.56c10.04-11.22,24.63-18.28,40.87-18.28 c15.12,0,28.8,6.12,38.72,16.01l25.82-25.89c-16.53-16.49-39.34-26.68-64.54-26.68c-37.48,0-69.69,22.56-83.79,54.84 C2.71,759.69,0,772.05,0,785.05c0,50.48,40.92,91.4,91.4,91.4s91.4-40.92,91.4-91.4H148.02z"></path> <path class="st2" d="M1124.17,730.15c0.01-12.16,0.01-24.33,0.02-36.49c-33.51,0-67.02,0-100.54,0c0,60.93,0,121.86,0,182.79 c33.51,0,67.02,0,100.54,0c0-12.19,0-24.37,0-36.56c-21.32,0-42.65,0-63.97,0c-0.01-12.19-0.01-24.37-0.02-36.56 c21.32,0.01,42.65,0.01,63.97,0.02c-0.01-12.2-0.03-24.4-0.04-36.6c-21.31,0.01-42.61,0.01-63.92,0.02c0-12.19,0-24.37-0.01-36.56 C1081.53,730.19,1102.85,730.17,1124.17,730.15z"></path> <path class="st4" d="M575.78,730.15c0.01-12.16,0.01-24.33,0.02-36.49c-33.51,0-67.02,0-100.54,0c0,60.93,0,121.86,0,182.79 c33.51,0,67.02,0,100.54,0c0-12.19,0-24.37,0-36.56c-21.32,0-42.65,0-63.97,0c-0.01-12.19-0.01-24.37-0.02-36.56 c21.32,0.01,42.65,0.01,63.97,0.02c-0.01-12.2-0.03-24.4-0.04-36.6c-21.31,0.01-42.61,0.01-63.92,0.02c0-12.19,0-24.37-0.01-36.56 C533.14,730.19,554.46,730.17,575.78,730.15z"></path> <path class="st4" d="M456.97,730.15c0.01-12.16,0.01-24.33,0.02-36.49c-33.51,0-67.02,0-100.54,0c0,60.93,0,121.86,0,182.79 c33.51,0,67.02,0,100.54,0c0-12.19,0-24.37,0-36.56c-21.32,0-42.65,0-63.97,0c-0.01-12.19-0.01-24.37-0.02-36.56 c21.32,0.01,42.65,0.01,63.97,0.02c-0.01-12.2-0.03-24.4-0.04-36.6c-21.31,0.01-42.61,0.01-63.92,0.02c0-12.19,0-24.37-0.01-36.56 C414.33,730.19,435.65,730.17,456.97,730.15z"></path> <g> <g> <path class="st4" d="M287.53,795.24c27.12-8.39,41.11-24.69,41.11-48.62c0-15.54-6.55-29.28-17.3-38.19 c-14.27-11.95-33.35-14.78-60.47-14.78h-49.8v182.79c12.2-0.01,24.4-0.02,36.59-0.02c0-48.74,0-97.48,0-146.22 c12.23-0.01,24.45-0.01,36.68-0.02c0.06,0.01,0.13,0.02,0.21,0.03c9.91,0.17,17.96,8.33,17.96,18.27v0 c0,10.05-8.22,18.27-18.27,18.27h0c-0.26,0-0.52-0.01-0.77-0.02c-5.82,0.01-11.64,0.01-17.47,0.02c0,15.23-0.01,30.47-0.01,45.7 c12.59,21.33,25.18,42.65,37.77,63.98h44.42L287.53,795.24z"></path> </g> </g> <path class="st4" d="M685.48,693.65c0,33.51,0,67.03,0,100.54c-18.28-33.51-36.56-67.03-54.84-100.54c-12.19,0-24.37,0-36.56,0 v182.79c12.19,0,24.37,0,36.56,0c0-33.52,0-67.03,0-100.55c18.26,33.52,36.52,67.03,54.78,100.55c12.21,0,24.41,0,36.62,0 c0-60.93,0-121.86,0-182.8C709.85,693.65,697.67,693.65,685.48,693.65z"></path> </g> <g> <g> <g> <g> <linearGradient id="SVGID_1_" gradientUnits="userSpaceOnUse" x1="345.3278" y1="265.4355" x2="345.3278" y2="659.2256"> <stop offset="0" style="stop-color:#66CC00"></stop> <stop offset="0.0278" style="stop-color:#6ECC00;stop-opacity:0.9722"></stop> <stop offset="0.1888" style="stop-color:#9ACB00;stop-opacity:0.8112"></stop> <stop offset="0.3517" style="stop-color:#BFCA01;stop-opacity:0.6483"></stop> <stop offset="0.5143" style="stop-color:#DBCA01;stop-opacity:0.4857"></stop> <stop offset="0.6766" style="stop-color:#EFC901;stop-opacity:0.3234"></stop> <stop offset="0.8385" style="stop-color:#FBC901;stop-opacity:0.1615"></stop> <stop offset="1" style="stop-color:#FFC901;stop-opacity:0"></stop> </linearGradient> <path class="st5" d="M315.35,373.27c0,0-12.87,9.62-2.33,17.68s22.8,14.11,72.74,18.46c0,0-44.98,1.86-69.48-11.32 C291.78,384.91,314.27,373.58,315.35,373.27z"></path> <g> <linearGradient id="SVGID_00000134245491524555834290000000020893093645242510_" gradientUnits="userSpaceOnUse" x1="405.1632" y1="265.4355" x2="405.1632" y2="659.2256"> <stop offset="0" style="stop-color:#66CC00"></stop> <stop offset="0.0278" style="stop-color:#6ECC00;stop-opacity:0.9722"></stop> <stop offset="0.1888" style="stop-color:#9ACB00;stop-opacity:0.8112"></stop> <stop offset="0.3517" style="stop-color:#BFCA01;stop-opacity:0.6483"></stop> <stop offset="0.5143" style="stop-color:#DBCA01;stop-opacity:0.4857"></stop> <stop offset="0.6766" style="stop-color:#EFC901;stop-opacity:0.3234"></stop> <stop offset="0.8385" style="stop-color:#FBC901;stop-opacity:0.1615"></stop> <stop offset="1" style="stop-color:#FFC901;stop-opacity:0"></stop> </linearGradient> <path style="fill:url(#SVGID_00000134245491524555834290000000020893093645242510_);" d="M403.72,371.87 c1.01-0.18,1.98-0.52,2.89-0.97C404.62,370.47,403.87,371.02,403.72,371.87z"></path> <linearGradient id="SVGID_00000168809346598688107560000016824903829681292182_" gradientUnits="userSpaceOnUse" x1="397.4931" y1="265.4355" x2="397.4931" y2="659.2256"> <stop offset="0" style="stop-color:#66CC00"></stop> <stop offset="0.0278" style="stop-color:#6ECC00;stop-opacity:0.9722"></stop> <stop offset="0.1888" style="stop-color:#9ACB00;stop-opacity:0.8112"></stop> <stop offset="0.3517" style="stop-color:#BFCA01;stop-opacity:0.6483"></stop> <stop offset="0.5143" style="stop-color:#DBCA01;stop-opacity:0.4857"></stop> <stop offset="0.6766" style="stop-color:#EFC901;stop-opacity:0.3234"></stop> <stop offset="0.8385" style="stop-color:#FBC901;stop-opacity:0.1615"></stop> <stop offset="1" style="stop-color:#FFC901;stop-opacity:0"></stop> </linearGradient> <path style="fill:url(#SVGID_00000168809346598688107560000016824903829681292182_);" d="M400.65,371.88 c-7.92-1.41-10.39,2.17-10.39,2.17l14.46,1.34c0,0-1.26-2.14-1.01-3.51C402.73,372.04,401.71,372.07,400.65,371.88z"></path> <linearGradient id="SVGID_00000049940139351478531840000011544075403555509134_" gradientUnits="userSpaceOnUse" x1="557.4822" y1="265.4355" x2="557.4822" y2="659.2256"> <stop offset="0" style="stop-color:#66CC00"></stop> <stop offset="0.0278" style="stop-color:#6ECC00;stop-opacity:0.9722"></stop> <stop offset="0.1888" style="stop-color:#9ACB00;stop-opacity:0.8112"></stop> <stop offset="0.3517" style="stop-color:#BFCA01;stop-opacity:0.6483"></stop> <stop offset="0.5143" style="stop-color:#DBCA01;stop-opacity:0.4857"></stop> <stop offset="0.6766" style="stop-color:#EFC901;stop-opacity:0.3234"></stop> <stop offset="0.8385" style="stop-color:#FBC901;stop-opacity:0.1615"></stop> <stop offset="1" style="stop-color:#FFC901;stop-opacity:0"></stop> </linearGradient> <path style="fill:url(#SVGID_00000049940139351478531840000011544075403555509134_);" d="M763.1,448.8 c-16.91-2.64-34.43-6.67-40.63-12.72c-6.2-6.05,13.8-7.75,18.92-9.46c5.12-1.71-29.78-8.37-37.84-9.15 c-8.06-0.78-7.29-6.05-0.31-6.82c6.98-0.78,9-1.55,13.96-5.74c4.96-4.19-32.57-11.63-32.57-11.63s-216.82-21.56-227.83-21.09 c-11.01,0.47-42.19-9-42.19-9s-3.21,5.35-8,7.71c0.59,0.13,1.28,0.34,2.11,0.66c8.11,3.15-1.55,8.37-11.32,8.37 s-13.49-4.65-14.11-6.67c-0.62-2.02-2.17-1.09-3.26,0c-1.09,1.09-3.26,1.86,0.78,5.74c4.03,3.88,12.87,4.5,28.85,3.58 c15.97-0.92,18.92-6.52,23.57-1.72c4.65,4.81-23.88,8.69-36.77,7.91c-12.89-0.78-30.96-2.64-35.65-11.32 c-4.69-8.69,16.13-13.34,16.13-13.34c-24.81,3.57-24.19,11.48-18.92,17.22c5.27,5.74,19.08,9.62,45.6,11.94 c26.52,2.33,49.63-4.5,50.72-5.89c1.09-1.4,3.41,1.71,4.81,4c1.4,2.29-11.17,10.11-50.56,9.65 c-39.39-0.47-67.93-10.55-73.51-18.15c-5.58-7.6,7.6-15.2,7.6-15.2c-20.32,8.37-14.58,18.15-1.4,25.44 c13.18,7.29,62.19,12.72,93.37,12.25c31.17-0.47,49.94-9.77,49.94-9.77c-2.17,10.86-48.7,14.58-48.7,14.58 c2.17,1.24,0.62,2.95,0.62,2.95s1.4,0,2.64,0s5.74,1.09,4.19,3.26c-1.55,2.17,6.98,7.6,10.7,11.17 c3.72,3.57,6.2,8.53,10.08,10.24c3.88,1.71,6.98,3.72,10.86,7.13c3.88,3.41,10.39,9.77,10.55,12.72 c0.16,2.95-0.47,3.57,5.74,6.36c6.2,2.79,7.44,4.5,6.51,6.36c-0.93,1.86-0.62,3.26,2.95,6.05c3.57,2.79,9.93,4.19,8.84,6.82 c-1.09,2.64,6.05,10.7,7.13,12.1c1.09,1.4,1.24,4.19-1.55,4.65c-2.79,0.47-1.55,2.79,3.88,9.93 c5.43,7.13,13.34,27.61,17.99,42.65c4.65,15.04,24.66,23.11,26.68,24.35c2.02,1.24-1.4,3.26-3.1,8.53 c-1.71,5.27-16.28,0.16-17.37,3.26c-1.09,3.1,26.83,23.88,32.88,24.5s30.71-16.13,32.1-17.99c1.4-1.86-5.74-3.26-9.31-4.5 c-3.57-1.24-5.43-2.02-5.27-4.65s-0.93-3.72-3.1-6.36c-2.17-2.64,0.16-4.03,7.75-9.62c7.6-5.58,11.63-15.35,13.34-24.19 c1.71-8.84-2.33-11.63-8.06-15.04c-5.74-3.41-2.95-6.36,1.55-11.01c4.5-4.65,3.88-7.91,2.33-11.17 c-1.55-3.26-0.78-4.19,1.24-8.37c2.02-4.19-1.24-4.96-0.47-10.24c0.78-5.27,6.05-7.44,4.19-16.91 c-1.86-9.46,1.24-10.86,3.72-14.58c2.48-3.72-3.72-6.2-3.88-11.79c-0.16-5.58,5.43-4.03,18.92-3.1 c13.49,0.93,59.09,2.79,63.12,5.27c4.03,2.48,2.17,5.89-6.05,6.51c-8.22,0.62-38.15,4.81-41.41,6.05 c-3.26,1.24,6.98,4.34,27.61,5.89c20.63,1.55,57.69,2.02,62.35,3.1c4.65,1.09,0.62,4.03,0.62,4.03 c3.26,0.93,13.34-0.31,20.01-2.95s6.05-6.2,2.95-7.91c-3.1-1.71-4.19-3.57-0.62-5.27c3.57-1.71,21.56-2.17,25.13-4.19 C788.38,452.22,780.01,451.44,763.1,448.8z M549.08,533.48c-1.71-0.16-10.55-19.39-22.49-36.76c0,0,22.18,17.53,22.49,18.61 C549.39,516.42,550.78,533.64,549.08,533.48z M557.48,430.35c-7.01,2.33-27.17,3.57-37.1,4.81 c-9.93,1.24-15.35,2.79-11.01,4.34c4.34,1.55,24.66,5.43,32.57,5.27c0,0,0.78,3.72-0.31,5.74c-1.09,2.02,0.62,7.13,2.17,9.62 c1.55,2.48,3.1,11.79,3.57,20.01c0.47,8.22,2.79,15.2,1.4,16.91c-1.4,1.71-1.71,2.02-0.78,4.03c0.93,2.02,0.31,5.89,0.31,5.89 s-11.32-10.55-15.2-13.96c-3.88-3.41-3.88-4.5-4.81-7.75c-0.93-3.26-5.12-6.51-11.32-9.46c-6.2-2.95-7.13-6.36-6.51-9.46 c0.62-3.1,0.52-3.88-3.15-5.35c-3.67-1.47-6.46-1.47-9.1-4.11c-2.64-2.64-43.27-39.24-42.96-41.88c0,0,51.65,6.51,73.82,7.29 C551.25,423.06,564.49,428.02,557.48,430.35z M587.85,448.49c-3.26,1.71-2.48,4.5-1.24,9.15c1.24,4.65-6.05,7.91-5.43,13.96 c0.62,6.05-1.55,7.6-1.55,7.6s0,0-0.93,1.09c-0.93,1.09-0.78,7.44-2.48,7.29c-1.71-0.16-2.02-6.05-2.02-6.05 c-0.62-4.04-3.88-15.2-4.65-19.23c-0.78-4.03,1.4-8.06-2.79-10.86c-4.19-2.79-4.5-4.96-3.41-5.58 c1.09-0.62,11.79-0.47,15.04-0.47c3.26,0,4.03-1.09,2.17-2.48c-1.86-1.4-0.62-2.64,2.95-3.41c3.57-0.78,10.08-0.93,11.63,2.02 C596.69,444.46,591.11,446.79,587.85,448.49z"></path> </g> <linearGradient id="SVGID_00000180341677276258782440000000813195370773885622_" gradientUnits="userSpaceOnUse" x1="416.2004" y1="265.4355" x2="416.2004" y2="659.2256"> <stop offset="0" style="stop-color:#66CC00"></stop> <stop offset="0.0278" style="stop-color:#6ECC00;stop-opacity:0.9722"></stop> <stop offset="0.1888" style="stop-color:#9ACB00;stop-opacity:0.8112"></stop> <stop offset="0.3517" style="stop-color:#BFCA01;stop-opacity:0.6483"></stop> <stop offset="0.5143" style="stop-color:#DBCA01;stop-opacity:0.4857"></stop> <stop offset="0.6766" style="stop-color:#EFC901;stop-opacity:0.3234"></stop> <stop offset="0.8385" style="stop-color:#FBC901;stop-opacity:0.1615"></stop> <stop offset="1" style="stop-color:#FFC901;stop-opacity:0"></stop> </linearGradient> <path style="fill:url(#SVGID_00000180341677276258782440000000813195370773885622_);" d="M399.49,415.77 c0,0,5.41,2.15,6.34,4.36c0.93,2.21,6.51,2.5,7.79,1.8s3.37-0.87,6.57-0.7s16.58-1.28,15.12-3.14 c-1.45-1.86-7.85-3.95-18.26-5.58c-10.41-1.63-17.62-2.33-18.38-1.4c-0.76,0.93-0.35,1.86-1.22,2.15 C396.58,413.56,396.7,415.25,399.49,415.77z"></path> </g> <g> <path class="st2" d="M394.29,289.06c0,0,26.68,12.41,63.28,13.65l10.24,4.65l-20.47,17.37c0,0-26.68-1.24-35.05-9.62 C403.91,306.74,400.5,301.16,394.29,289.06z"></path> <path class="st2" d="M394.29,304.1c0,0,13.57,22.8,42.19,29.78c0,0-16.05,13.03-18.61,16.28 C417.87,350.16,398.64,325.5,394.29,304.1z"></path> <path class="st2" d="M745.42,324.73c-64.67,40.87-159.82,32.88-206.12,28.46c-46.29-4.42-90.03-15.35-90.5-16.05 c-0.47-0.7,11.86-10.24,12.79-10.93c0.93-0.7,82.35,12.33,83.05,13.03c0.7,0.7-2.33,8.38-2.33,8.38 c2.56-0.47,17.22,2.79,17.22,2.56s1.86-8.84,1.86-8.84c7.44,1.4,33.03,4.19,33.03,4.19v5.12l15.59,0.93v-5.12 c31.64,4.65,67.7-5.58,67.7-5.58c-27.92,0.7-67.23-2.56-67.23-2.56c0.47-5.35,0.23-15.59,0.23-15.59 c5.12-2.79,4.42-10.47,3.17-12.8c-1.25-2.33,0.08-8.84,0-15.12c-0.08-6.28-8.29-27.92-8.29-27.92c4.42,0.23,5.12-1.4,5.12-1.4 c-5.12-7.91-9.31-28.38-9.31-28.38c11.63-5.12,13.03-11.63,12.33-19.31c-0.7-7.68-6.05-23.03-10-27.45 c-3.95-4.42-14.66-10.47-14.66-10.47c5.58-5.58,7.68-13.49,7.91-15.82c0.23-2.33,1.16-3.95,2.79-3.49 c1.63,0.47,7.44,0.93,8.37-1.16s-16.98-15.82-19.54-17.68c-2.56-1.86-6.98-3.95-12.8,0c-5.82,3.95-20.24,18.84-20.24,18.84 s2.33,1.16,5.58,1.63c3.26,0.47,3.72,0.47,5.82,6.28c2.09,5.82,5.58,4.89-7.91,12.8c-13.49,7.91-14.19,13.03-19.08,22.57 c-4.89,9.54-21.17,43.27-21.17,43.27s3.96,0.47,4.19,1.16c0.23,0.7-1.63,7.68-3.72,11.86c-2.09,4.19-1.86,11.17-1.86,11.17 c-21.17,15.59-121.9,101.43-121.9,101.43l10.47,3.02l18.84-18.15c0.47,1.63,9.54,9.54,21.4,13.96 c11.86,4.42,38.39,11.86,79.33,17.22c40.94,5.35,108.87,13.26,137.49,10.93c28.61-2.33,46.53-19.31,61.42-33.97 c14.89-14.66,28.85-28.15,29.55-30.24C754.73,333.41,745.42,324.73,745.42,324.73z M567.22,323.99c2.09-1.4,4.65-6.4,6.4-13.84 c1.74-7.44,7.21-23.61,7.21-23.61s3.49,8.84,4.89,13.73c1.4,4.89,2.79,6.86,2.09,12.91c-0.7,6.05,3.26,9.42,4.65,12.1 c1.4,2.68,0.93,11.05,0.93,11.05c-11.17-0.58-30.01-3.49-30.01-3.49C563.04,328.18,565.13,325.39,567.22,323.99z M532.33,250.83c2.79-2.56,4.89-5,8.14-11.05c3.26-6.05,10.59-20.01,11.52-19.89v25.94l-21.75,14.89 C530.23,260.71,529.54,253.39,532.33,250.83z M522.56,276.07c3.37-0.23,4.54-0.81,6.28-3.84c1.75-3.02,3.84-6.63,6.86-8.61 c3.02-1.98,15.35-11.63,15.35-11.63s0,8.84-3.84,15.35c0,0,0.58,1.63,4.77,0.93c0,0-0.81,23.85-2.09,33.03 c-1.28,9.19-3.26,13.49-4.42,16.75c-1.16,3.26-1.63,7.56,0.47,10.82c0,0-55.37-10.59-66.3-17.1 C479.63,311.78,519.18,276.3,522.56,276.07z"></path> </g> </g> <g> <path class="st2" d="M306.17,481.63c0,0,54.92-37.15,125.37-36.87s120.35,33.53,172.24,42.82s123.1,19.88,209.19-51.41 l10.07,31.66L660.81,589.5l-136.77,15.83l-127.07-53.31L306.17,481.63z"></path> <linearGradient id="SVGID_00000175282550518028204790000005449543110928783280_" gradientUnits="userSpaceOnUse" x1="333.4347" y1="532.7448" x2="799.2037" y2="532.7448"> <stop offset="0" style="stop-color:#66CC00"></stop> <stop offset="1" style="stop-color:#FFC901"></stop> </linearGradient> <path style="fill:url(#SVGID_00000175282550518028204790000005449543110928783280_);" d="M333.43,484.4 c0,0,72.55-32.88,137.33-17.98c64.78,14.9,81.62,34.01,126.97,45.67c45.35,11.66,126.97,13.93,201.47-48.26l-55.23,83.73 l-126.81,55.39l-118.06-2.92l-98.14-35.47L333.43,484.4z"></path> <path class="st2" d="M366.84,514.4c0,0,43.89-25.56,98.87-12.51c57.82,13.73,61.58,31.34,107.98,41.05 c63.57,13.31,95.96,1.46,120.25-5.1c0,0-38.8,20.77-96.52,22.55c-45.83,1.42-78.87-15.1-111.91-28.71 c-33.04-13.6-60.57-16.2-98.14-0.4L366.84,514.4z"></path> </g> <g> <g> <path class="st2" d="M868.84,262.14c-0.59-3.72-1.22-7.43-1.92-11.11c0-0.11-0.02-0.24-0.07-0.37 c-0.72-3.76-1.51-7.5-2.36-11.19c0-0.04,0-0.09-0.02-0.11c-0.87-3.72-1.79-7.39-2.78-11.04c-1.03-3.8-2.12-7.59-3.3-11.33 c-1.55-4.96-3.21-9.84-4.98-14.69c0-0.04-0.02-0.09-0.07-0.15c-11.28-30.52-27.24-58.79-47.01-83.91 C782.28,87.65,752.57,61.7,718.77,42C673.05,15.3,619.86,0,563.08,0C392.24,0,253.76,138.48,253.76,309.32 c0,63.8,19.31,123.07,52.41,172.3c2.84,4.24,5.77,8.4,8.81,12.46c8.92,11.96,18.69,23.24,29.23,33.78 c6.27,6.32,12.86,12.37,19.7,18.12c50.85,42.83,115.72,69.59,186.73,72.41c4.13,0.15,8.26,0.24,12.44,0.24 c9.23,0,18.34-0.39,27.35-1.2c19.76-1.73,39-5.31,57.52-10.6c0.85-0.22,1.68-0.48,2.54-0.74 c96.24-28.29,173-102.12,205.34-196.59c2.16-6.3,4.11-12.7,5.86-19.17c0.98-3.65,1.9-7.32,2.78-11.04 c0.02-0.02,0.02-0.07,0.02-0.11c0.83-3.63,1.6-7.28,2.32-10.98v-0.02c0.04-0.2,0.09-0.39,0.11-0.57 c0.28-1.46,0.55-2.93,0.81-4.42c0.02-0.02,0.02-0.04,0.02-0.07c0.37-2.19,0.74-4.42,1.09-6.62 c2.34-15.39,3.56-31.13,3.56-47.18C872.4,293.27,871.18,277.53,868.84,262.14z M548.76,29.49c2.36-0.11,4.72-0.2,7.08-0.26 c2.25-0.07,4.5-0.09,6.76-0.09c4.9,0,9.77,0.13,14.6,0.37c2.32,0.11,4.64,0.24,6.95,0.44c14.76,1.07,29.19,3.3,43.22,6.6 c23.87,5.62,46.57,14.28,67.65,25.56c76.26,40.78,131.44,115.81,145,204.55c0,0.07,0.02,0.11,0.04,0.17 c2.1,13.86,3.19,28.03,3.19,42.48c0,45.65-10.93,88.77-30.3,126.85c-0.04,0.09-0.09,0.17-0.11,0.24 c-5.62,11-11.92,21.56-18.87,31.64c0,0,0,0.02-0.02,0.02c-0.17,0.28-0.35,0.55-0.55,0.83c-0.96,1.38-1.95,2.75-2.93,4.11 c0,0.02-0.02,0.02-0.02,0.02c-28.2,39.14-66.27,70.68-110.56,91.02c-12.81,5.9-26.15,10.84-39.92,14.78 c-1.71,0.46-3.39,0.94-5.12,1.38c-16.35,4.33-33.28,7.21-50.66,8.48c-0.07,0-0.13,0-0.2,0.02c-1.38,0.11-2.75,0.2-4.15,0.28 c-2.12,0.13-4.26,0.24-6.41,0.31c-3.59,0.13-7.21,0.2-10.84,0.2c-2.25,0-4.5-0.02-6.76-0.09c-2.36-0.07-4.72-0.15-7.06-0.26 c-2.36-0.11-4.68-0.26-7.02-0.44c-56.84-4.29-108.97-25.51-151.29-58.68c-0.02,0-0.02,0-0.02,0c-0.44-0.35-0.87-0.68-1.29-1.03 c-6.45-5.09-12.66-10.47-18.61-16.11c-0.11-0.09-0.2-0.17-0.28-0.28c-10.3-9.77-19.87-20.33-28.6-31.57 c-0.07-0.07-0.11-0.11-0.15-0.17c-3.41-4.39-6.69-8.9-9.82-13.49c-0.07-0.07-0.11-0.13-0.15-0.22 c-30.7-44.95-48.65-99.28-48.65-157.83c0-149.72,117.45-272.04,265.27-279.81C548.37,29.49,548.57,29.49,548.76,29.49z"></path> </g> </g> </g> </g> </g> </svg> 