<svg xmlns="http://www.w3.org/2000/svg" xmlns:xlink="http://www.w3.org/1999/xlink" id="Layer_1" x="0px" y="0px" viewBox="0 0 229.84 229.84" style="enable-background:new 0 0 229.84 229.84;" xml:space="preserve"> <style type="text/css"> .st0{fill:none;stroke:#FFFFFF;stroke-width:7;stroke-miterlimit:10;} .st1{fill:#FFFFFF;} </style> <g> <g> <path class="st0" d="M176.49,226.34H53.34c-27.53,0-49.84-22.32-49.84-49.84V53.34C3.5,25.82,25.82,3.5,53.34,3.5h123.15 c27.53,0,49.84,22.32,49.84,49.84v123.15C226.34,204.02,204.02,226.34,176.49,226.34z"></path> </g> <g> <path class="st1" d="M75.99,61.74c1.27-1.7,1.47-3.93,0.52-5.83c-0.95-1.9-2.86-3.08-4.98-3.08H33.92v10.85h27.04l-25.8,34.4 c-1.27,1.7-1.47,3.93-0.52,5.83s2.86,3.08,4.98,3.08h37.61V96.14H50.19L75.99,61.74z"></path> <path class="st1" d="M174.26,63.65c-11.95,0-21.67,9.72-21.67,21.67c0,11.95,9.72,21.67,21.67,21.67 c11.95,0,21.67-9.72,21.67-21.67C195.92,73.37,186.2,63.65,174.26,63.65z M174.26,96.14c-5.96,0-10.81-4.85-10.81-10.81 c0-5.96,4.85-10.82,10.81-10.82s10.81,4.85,10.81,10.82C185.07,91.28,180.22,96.14,174.26,96.14z"></path> <path class="st1" d="M55.58,123.26c-11.95,0-21.67,9.72-21.67,21.67v37.89h10.85v-19.15c3.19,1.85,6.87,2.92,10.82,2.92 c11.95,0,21.67-9.72,21.67-21.67C77.24,132.98,67.53,123.26,55.58,123.26z M55.58,155.74c-5.96,0-10.82-4.85-10.82-10.81 c0-5.96,4.85-10.82,10.82-10.82s10.81,4.85,10.81,10.82C66.39,150.89,61.54,155.74,55.58,155.74z"></path> <polygon class="st1" points="162.92,123.27 151.38,150.2 140.42,123.27 128.7,123.27 145.37,164.22 137.4,182.82 149.2,182.82 174.73,123.27 "></polygon> <path class="st1" d="M124.58,96.13V63.65h-10.87v3.96c-3.35-2.45-7.41-3.9-11.8-3.9c-11.39,0-20.63,9.69-20.63,21.64 s9.24,21.64,20.63,21.64c5.33,0,10.17-2.14,13.84-5.62c2.22,3.39,6.04,5.63,10.39,5.63l3.84,0V96.13H124.58z M102.93,96.14 c-5.96,0-10.79-4.83-10.79-10.79c0-5.96,4.83-10.79,10.79-10.79c5.96,0,10.79,4.83,10.79,10.79c0,0,0,0,0,0c0,0,0,0,0,0 C113.72,91.3,108.89,96.14,102.93,96.14z"></path> <path class="st1" d="M124.58,155.75v-32.48h-10.87v3.96c-3.35-2.45-7.41-3.9-11.8-3.9c-11.39,0-20.63,9.69-20.63,21.64 c0,11.95,9.24,21.64,20.63,21.64c5.33,0,10.17-2.14,13.84-5.62c2.22,3.39,6.04,5.63,10.39,5.63l3.84,0v-10.85H124.58z M102.93,155.75c-5.96,0-10.79-4.83-10.79-10.79c0-5.96,4.83-10.79,10.79-10.79c5.96,0,10.79,4.83,10.79,10.79c0,0,0,0,0,0 s0,0,0,0C113.72,150.92,108.89,155.75,102.93,155.75z"></path> <path class="st1" d="M144.97,96.13v-43.3h-10.87v41.72c0,6.87,5.57,12.44,12.44,12.44l3.88,0V96.13H144.97z"></path> </g> </g> </svg>